<?xml version="1.0" standalone="no"?>
<!DOCTYPE svg PUBLIC "-//W3C//DTD SVG 1.1//EN" "http://www.w3.org/Graphics/SVG/1.1/DTD/svg11.dtd" >
<svg xmlns="http://www.w3.org/2000/svg">
<metadata>
Created by FontPrep 20130207 at Sat Nov 21 17:53:35 2015
 By Khalid
Copyright \(c\) 2001 Carter &#38; Cone Type Inc.  All rights reserved.
</metadata>
<defs>
<font id="d35ef1182c5f0144799721c385282577" horiz-adv-x='1024' >
  <font-face 
    font-family="NYCheltenham-Medium"
    font-weight="500"
    font-stretch="normal"
    units-per-em="2048"
    panose-1="2 0 6 3 6 0 0 2 0 4"
    ascent="1548"
    descent="-500"
    x-height="860"
    cap-height="1495"
    bbox="-303 -426 2157 2011"
    underline-thickness="40"
    underline-position="-231"
    unicode-range="U+0020-FB02"
  />
<missing-glyph horiz-adv-x="1024" 
 />
    <glyph glyph-name=".notdef" horiz-adv-x="1024" 
 />
    <glyph glyph-name=".null" horiz-adv-x="0" 
 />
    <glyph glyph-name="nonmarkingreturn" horiz-adv-x="681" 
 />
    <glyph glyph-name="space" unicode=" " horiz-adv-x="552" 
 />
    <glyph glyph-name="exclam" unicode="!" horiz-adv-x="593" 
d="M436 128q0 -58 -41 -99t-99 -41t-98 41t-40 99t40 99t98 41t99 -41t41 -99zM295 1518q137 0 137 -194q0 -57 -24.5 -191t-39.5 -262t-26 -425q0 -24 -44 -24t-44 24q-15 372 -39.5 521t-37.5 227t-13 132q0 89 32.5 140.5t98.5 51.5z" />
    <glyph glyph-name="quotedbl" unicode="&#x22;" 
d="M356 1413q0 -39 -13.5 -124.5t-32.5 -187.5t-31 -171q-12 -16 -33 -16.5t-33 16.5q-11 68 -25 140t-33.5 186t-19.5 155t30 73t81 32t80.5 -32t29.5 -71zM654.5 1484q29.5 -32 29.5 -75q0 -65 -78 -479q-12 -16 -32.5 -16.5t-32.5 16.5q-11 68 -25 140t-33.5 181
t-19.5 155t29.5 78t81 32t81 -32z" />
    <glyph glyph-name="numbersign" unicode="#" horiz-adv-x="1585" 
d="M678 846l-43 -291h287l43 291h-287zM1395 846h-334l-45 -291h340l-29 -190h-338l-57 -383h-96l57 383h-287l-57 -383h-96l57 383h-332l29 190h332l43 291h-336l28 190h336l56 367h96l-55 -367h284l58 367h96l-58 -367h336z" />
    <glyph glyph-name="dollar" unicode="$" horiz-adv-x="1095" 
d="M789 460q-30 65 -130 111q-10 5 -23 11t-28 12v-508q104 19 157.5 88.5t53.5 145.5q0 75 -30 140zM332 1094q0 -133 127 -209q12 -10 53 -29v451q-87 -11 -133.5 -71.5t-46.5 -141.5zM334 322q0 -89 -84 -134q41 -37 98.5 -68.5t163.5 -37.5v547q-88 34 -127 57
q-112 66 -178 145t-66 213t102 240.5t269 122.5v109h96v-107q147 -8 247.5 -83t100.5 -181q0 -68 -35.5 -99.5t-77.5 -31.5t-79 27.5t-37 72.5t17.5 67.5t46.5 43.5q-25 25 -65 50t-118 32v-488q95 -35 191 -88q213 -117 213 -330q0 -166 -112 -283.5t-292 -133.5v-263h-96
v261q-205 12 -319.5 100.5t-114.5 208.5q0 78 43 113.5t99 35.5t85 -35.5t29 -82.5z" />
    <glyph glyph-name="percent" unicode="%" horiz-adv-x="1765" 
d="M1331 84q148 0 148 241.5t-38 313.5t-109.5 72t-109.5 -72t-38 -242t38 -241.5t109 -71.5zM451 768q147 0 147 241.5t-38 313.5t-109.5 72t-109.5 -72t-38 -242t38 -241.5t110 -71.5zM1661 397q0 -92 -25.5 -166.5t-70.5 -128t-105.5 -83t-128 -29.5t-128 29.5t-105.5 83
t-71 128t-26 166.5t26 167t70 128t104.5 83t130 30t129 -30t104.5 -83t70.5 -128t25.5 -167zM553 -20h-121l797 1521h121zM780 1081.5q0 -92.5 -25.5 -167t-70.5 -128t-105.5 -83t-128 -29.5t-128 29.5t-105.5 83t-70.5 128t-25.5 167t25.5 167t69.5 128t104.5 83t130 29.5
t129 -29.5t104.5 -83t70.5 -128t25.5 -167z" />
    <glyph glyph-name="ampersand" unicode="&#x26;" horiz-adv-x="1572" 
d="M301 477q0 -236 120.5 -287t190.5 -51q121 0 240 78q-114 142 -207 305q-46 77 -133 248q-211 -126 -211 -293zM903 1225q0 92 -46.5 138t-112.5 46t-108 -47t-42 -123q0 -133 78 -295q231 101 231 281zM1253 -20q-168 0 -325 155q-199 -155 -406 -155t-328.5 117.5
t-121.5 295.5q0 290 395 473q-80 192 -80 322t101 229t265 99t248 -90.5t84 -206.5q0 -117 -90 -206t-278 -161q80 -156 137 -259t156 -237q66 78 105.5 154t39.5 108t-13.5 47t-56.5 35t-55 29.5t-12 26.5v51h489v-49q0 -23 -19.5 -34.5t-51.5 -25.5q-70 -31 -98 -55.5
t-104 -147.5q-76 -124 -161 -216q138 -162 277 -162q80 0 166 49l47 -90q-100 -72 -176 -84t-134 -12z" />
    <glyph glyph-name="quotesingle" unicode="'" horiz-adv-x="491" 
d="M356 1413q0 -39 -13.5 -124.5t-32.5 -187.5t-31 -171q-12 -16 -33 -16.5t-33 16.5q-11 68 -25 140t-33.5 186t-19.5 155t30 73t81 32t80.5 -32t29.5 -71z" />
    <glyph glyph-name="parenleft" unicode="(" horiz-adv-x="706" 
d="M244.5 1087q133.5 255 347.5 429l61 -52q-234 -216 -278.5 -487.5t-44.5 -411.5q0 -283 82 -514t241 -385l-61 -51q-205 164 -343 425.5t-138 526.5t133.5 520z" />
    <glyph glyph-name="parenright" unicode=")" horiz-adv-x="706" 
d="M459 40.5q-139 -263.5 -342 -425.5l-62 51q160 154 242 385.5t82 513.5q0 432 -123 630t-201 269l62 52q213 -176 347 -431t134 -518t-139 -526.5z" />
    <glyph glyph-name="asterisk" unicode="*" horiz-adv-x="1024" 
d="M893 1240q0 -42 -42 -68t-68.5 -30.5t-75.5 -9.5t-136 -55q89 -48 158 -53q162 -24 162 -109q0 -43 -24.5 -68.5t-61.5 -25.5t-73 30t-53 54q-28 40 -55 64.5t-83 56.5q3 -106 21 -148t26 -66t8 -68t-24.5 -66.5t-61.5 -22.5t-60.5 25t-23.5 73t27 107q26 80 28 166
q-66 -35 -88 -56.5t-42 -47.5t-54.5 -61.5t-75.5 -35.5t-65.5 24.5t-24.5 66.5t42 68t67.5 31t72.5 10t138 52q-62 34 -156 58q-162 24 -162 106q0 43 24.5 68.5t61.5 25.5t73 -29.5t53 -53.5t33 -48t105 -74q-2 83 -20 137t-26.5 77.5t-8.5 67.5t24.5 66.5t61.5 22.5
t60.5 -24.5t23.5 -71.5t-26 -110q-26 -62 -29 -165q66 35 88 56.5t42 48.5q71 96 132 96q39 0 63.5 -24.5t24.5 -66.5z" />
    <glyph glyph-name="plus" unicode="+" horiz-adv-x="1548" 
d="M850 526v-454h-152v454h-458v148h458v454h152v-454h459v-148h-459z" />
    <glyph glyph-name="comma" unicode="," horiz-adv-x="520" 
d="M406 108q0 -123 -71 -238t-204 -187l-47 57q61 53 113.5 112.5t72.5 141.5q-86 10 -117.5 50t-31.5 98t43.5 95t107.5 37t99 -50t35 -116z" />
    <glyph glyph-name="hyphen" unicode="-" horiz-adv-x="636" 
d="M96 362v187h445v-187h-445z" />
    <glyph glyph-name="hyphen" unicode="&#xad;" horiz-adv-x="636" 
d="M96 362v187h445v-187h-445z" />
    <glyph glyph-name="period" unicode="." horiz-adv-x="520" 
d="M401 130q0 -58 -41 -100t-100 -42t-99 42t-40 100t40 100t99 42t100 -42t41 -100z" />
    <glyph glyph-name="slash" unicode="/" horiz-adv-x="995" 
d="M147 -389h-151l729 1884h154z" />
    <glyph glyph-name="zero" unicode="0" horiz-adv-x="1181" 
d="M850 699q0 165 -17.5 281t-51 188.5t-82 105.5t-110 33t-109.5 -33t-80.5 -105.5t-50 -188.5t-17.5 -279.5t17.5 -278.5t50 -187.5t80.5 -105.5t109.5 -33t110 33t82 104.5t51 186t17.5 279.5zM1083 701q0 -161 -37.5 -294t-104.5 -227t-157 -146t-246.5 -52t-298 199.5
t-141.5 516.5t139 520t298 203t250.5 -52t157 -147.5t103 -227.5t37.5 -293z" />
    <glyph glyph-name="one" unicode="1" horiz-adv-x="815" 
d="M156 0v55q0 25 19 35t65 24t68 34t22 67v981h-217v88l315 123h115v-1192q0 -86 84 -103q45 -9 63.5 -19.5t18.5 -35.5v-57h-553z" />
    <glyph glyph-name="two" unicode="2" horiz-adv-x="1026" 
d="M338 1090q0 -60 -32 -94.5t-94 -34.5t-96 40.5t-34 100.5q0 121 122 220t311 99t309 -96t120 -260q0 -213 -248 -428q-297 -258 -359.5 -328.5t-88.5 -105.5h444q104 -1 136 83q14 38 22 46t20 12h72l-12 -344h-875v156q94 130 264 312q170 181 229.5 253t111 157.5
t51.5 196.5t-68 172.5t-178 61.5q-63 0 -119.5 -30t-79.5 -71q72 -58 72 -118z" />
    <glyph glyph-name="three" unicode="3" horiz-adv-x="1028" 
d="M322 1160q0 -54 -33 -85t-82 -31t-84 33t-35 89q0 108 118.5 181.5t286.5 73.5q169 0 290.5 -89t121.5 -217.5t-91 -217.5t-247 -121q163 -16 277 -115.5t114 -254.5q0 -187 -149 -305.5t-367 -118.5q-170 0 -287.5 74.5t-117.5 189.5q0 59 33.5 100t93 41t89.5 -35
t30 -87t-45 -101q52 -70 189 -70t217.5 90.5t80.5 223.5q0 299 -393 299v112q180 10 263 77t83 202q0 98 -64.5 154.5t-146.5 56.5q-137 0 -188 -62q43 -33 43 -87z" />
    <glyph glyph-name="four" unicode="4" horiz-adv-x="1058" 
d="M594 494v618l-447 -618h447zM805 358v-170q0 -35 14.5 -48.5t44.5 -31.5t38.5 -26t8.5 -23v-59h-428v59q0 16 9.5 22.5t41.5 23.5t46 29.5t14 53.5v170h-584v144l664 917h131v-925h207v-136h-207z" />
    <glyph glyph-name="five" unicode="5" horiz-adv-x="1056" 
d="M268 164q52 -70 192 -70q133 0 213.5 97.5t80.5 232.5q0 220 -105.5 273t-184.5 53q-132 0 -257 -107l-84 57l47 701h532q53 0 73 13t32 43t39 36h63l-18 -297h-612l-29 -397q128 100 291 100q200 0 321 -124.5t121 -329.5t-150 -334t-345 -129t-307.5 77.5t-112.5 196.5
q0 53 34 94t94 41t89.5 -36t29.5 -72q0 -70 -47 -119z" />
    <glyph glyph-name="six" unicode="6" horiz-adv-x="1132" 
d="M823 426q0 298 -227 297q-75 0 -150.5 -42t-113.5 -91q0 -334 95 -415t161 -81q117 0 176 95t59 237zM663 1309q-50 0 -109.5 -32t-139.5 -146t-84 -416q53 59 138.5 106t183.5 47q186 0 296.5 -118t110.5 -303t-131.5 -325t-349.5 -140t-349 187t-131 499t172.5 532.5
t429.5 220.5q143 0 223.5 -64.5t80.5 -150.5q0 -59 -37 -95t-92 -36t-86 36t-31 87q0 4 2 16q0 12 2 27l4 47q-53 21 -103 21z" />
    <glyph glyph-name="seven" unicode="7" horiz-adv-x="937" 
d="M319 1401h615v-115q-94 -151 -173 -286.5t-166 -339t-87 -488.5q0 -184 -133 -184q-61 0 -96 37.5t-35 117.5q0 147 173.5 479t346.5 580h-473q-107 0 -135 -76q-14 -38 -22.5 -45.5t-20.5 -11.5h-72q4 87 9 153t9 121q2 55 4 70q147 -12 256 -12z" />
    <glyph glyph-name="eight" unicode="8" horiz-adv-x="1071" 
d="M244 358q0 -118 82 -192t204 -74t204.5 66t82.5 185t-155 208q-50 29 -102 53t-103 49q-140 -64 -176.5 -149.5t-36.5 -145.5zM760 1092q0 92 -60.5 153.5t-161.5 61.5t-161 -60.5t-60 -147.5t71 -148.5t194 -114.5q178 91 178 256zM352 709q-219 141 -219 325
q0 170 119.5 278.5t295.5 108.5t283 -91t107 -224q0 -102 -71.5 -190.5t-180.5 -131.5q175 -85 250.5 -172.5t75.5 -242.5q0 -169 -140.5 -279t-353.5 -110t-336 105t-123 257q0 121 86 218t207 149z" />
    <glyph glyph-name="nine" unicode="9" horiz-adv-x="1132" 
d="M307 974q0 -142 58.5 -220t154.5 -78t169 42t112 93q0 208 -65.5 352t-187.5 144t-181.5 -95.5t-59.5 -237.5zM480 532q-181 0 -293.5 117t-112.5 304t130 327.5t333 140.5q237 0 367 -192t130 -497t-172.5 -527.5t-433.5 -222.5q-148 0 -231.5 61.5t-83.5 149.5
q0 59 34.5 97t92.5 38t87 -35t29 -86v-17q-2 -14 -2 -28l-6 -47q26 -21 96 -21q146 -1 251.5 145.5t109.5 442.5q-55 -59 -141 -104.5t-184 -45.5z" />
    <glyph glyph-name="colon" unicode=":" horiz-adv-x="569" 
d="M426 130q0 -58 -41 -100t-100.5 -42t-99.5 42t-40 100t40 100t99.5 42t100.5 -42t41 -100zM426 753q0 -58 -41 -100.5t-100.5 -42.5t-99.5 42t-40 100t40 100.5t99.5 42.5t100.5 -42t41 -100z" />
    <glyph glyph-name="semicolon" unicode=";" horiz-adv-x="569" 
d="M285 274q145 0 145 -182q0 -106 -70 -220.5t-204 -188.5l-47 57q61 53 114 112.5t72 141.5q-86 10 -118 50t-32 98t43 95t97 37zM426 753q0 -58 -41 -100.5t-100.5 -42.5t-99.5 42t-40 100t40 100.5t99.5 42.5t100.5 -42t41 -100z" />
    <glyph glyph-name="less" unicode="&#x3c;" horiz-adv-x="1548" 
d="M246 526v148l1057 481v-168l-869 -387l869 -387v-168z" />
    <glyph glyph-name="equal" unicode="=" horiz-adv-x="1548" 
d="M248 295v151h1052v-151h-1052zM248 680v151h1052v-151h-1052z" />
    <glyph glyph-name="greater" unicode="&#x3e;" horiz-adv-x="1548" 
d="M246 45v168l868 387l-868 387v168l1057 -481v-148z" />
    <glyph glyph-name="question" unicode="?" horiz-adv-x="870" 
d="M541 128q0 -58 -41 -99t-100.5 -41t-99.5 41t-40 99t40 99t99.5 41t100.5 -41t41 -99zM328 1257q0 -56 -35 -89t-88 -33t-87 37.5t-34 85.5q0 101 94 179.5t261 78.5q166 0 265 -87.5t99 -215.5t-65.5 -208.5t-111.5 -136.5q-103 -125 -137 -214t-38 -220q0 -6 -17.5 -12
t-32 -6t-33 6t-18.5 12q-10 219 95 415t119 254t14 99q0 215 -170 215q-35 0 -72 -16.5t-55 -46.5q47 -41 47 -97z" />
    <glyph glyph-name="at" unicode="@" horiz-adv-x="1957" 
d="M1233 728q0 26 -24.5 45.5t-59.5 19.5q-104 0 -193 -117q-102 -125 -126.5 -242t-24.5 -162q0 -158 129 -157q39 0 84 23.5t80 64.5l102 352q4 16 10.5 38.5t11.5 45.5t8 43t3 46zM1006 -426q-392 0 -627.5 220.5t-235.5 579.5q0 181 75 350t205 297t306.5 203.5
t360.5 75.5q348 0 550.5 -179t202.5 -454t-122 -423t-227 -204t-221 -56t-135.5 55t-21.5 78q-63 -53 -125.5 -88t-166.5 -35t-168 72.5t-64 202.5t63.5 254t152.5 205q170 155 333 155q120 0 176 -74l65 59h103l-150 -581q-24 -93 -24 -127t10 -49t39 -15q146 0 258.5 174
t112.5 397t-163.5 377t-439.5 154q-176 0 -324.5 -67.5t-256 -183.5t-169 -268.5t-61.5 -314.5q0 -311 188 -497t508 -186q319 0 586 178l41 -82q-290 -203 -634 -203z" />
    <glyph glyph-name="A" unicode="A" horiz-adv-x="1413" 
d="M659 1112l-237 -588h475zM936 0v49q0 16 10 25.5t49 31.5t39 46q0 23 -24 92l-64 162h-573l-64 -158q-20 -51 -20 -91t51 -61q31 -14 41 -24.5t10 -28.5v-43h-389v51q0 16 7 25.5t33 25.5q48 29 66.5 51t41.5 72l442 1043l-43 88q-8 16 -8 25t47 41q47 31 86 64
q39 32 47 32t11 -1t7 -12l529 -1296q30 -74 77.5 -96.5t56.5 -29.5t9 -26v-57h-475z" />
    <glyph glyph-name="B" unicode="B" horiz-adv-x="1292" 
d="M590 117q375 0 375 297q0 154 -94.5 228.5t-311.5 74.5h-131v-600h162zM571 1380h-143v-542h158q160 0 232.5 73.5t72.5 201.5t-74.5 197.5t-245.5 69.5zM1219 405q0 -171 -137 -288t-363 -117h-635v57q0 16 9 23.5t46 24.5t48.5 31t11.5 50v1121q0 35 -10.5 50t-47.5 33
t-45 24.5t-8 23.5v57h586q229 0 350 -101t121 -261q0 -196 -135.5 -265t-216.5 -82q297 -26 361.5 -161.5t64.5 -219.5z" />
    <glyph glyph-name="C" unicode="C" horiz-adv-x="1300" 
d="M712 -20q-138 0 -262 65.5t-246 224t-122 471.5q0 190 57.5 336t148.5 243t205.5 146.5t220.5 49.5t179.5 -19.5t150.5 -69.5q25 -14 40 -14t36 16.5t39 16.5h49v-375h-73q-29 0 -37 27q-41 135 -128 215t-210 80q-163 0 -292.5 -162t-129.5 -472t117 -479t294 -169
t289.5 86t167.5 172l74 -80q-18 -43 -64.5 -97.5t-116 -101.5t-159.5 -78.5t-228 -31.5z" />
    <glyph glyph-name="D" unicode="D" horiz-adv-x="1449" 
d="M1112 742q0 324 -149.5 480t-417.5 156h-117v-1261h135q262 0 405.5 150.5t143.5 474.5zM1162.5 207q-205.5 -207 -523.5 -207h-555v57q0 16 9 23.5t46 24.5t48.5 31t11.5 50v1121q0 35 -10.5 50t-47.5 33t-45 24.5t-8 23.5v57h498q359 0 570.5 -206t211.5 -540.5
t-205.5 -541.5z" />
    <glyph glyph-name="E" unicode="E" horiz-adv-x="1216" 
d="M84 0v57q0 16 9 23.5t46 24.5t48.5 31t11.5 50v1121q0 35 -10.5 50t-47.5 33t-45 24.5t-8 23.5v57h782q99 0 197 14v-319h-49q-43 0 -58 40q-33 89 -71.5 117.5t-151.5 28.5h-309v-551h170q59 0 84 21.5t53 79.5q10 16 20.5 26.5t37.5 10.5h51v-388h-58q-25 0 -37.5 13.5
t-30.5 47.5t-41.5 51.5t-74.5 17.5h-174v-586h408q92 0 134.5 39t90.5 153q10 23 17 32t28 9h59v-352h-1081z" />
    <glyph glyph-name="F" unicode="F" horiz-adv-x="1169" 
d="M1077 1188q-27 0 -37 8t-19 39q-23 79 -64.5 110t-157.5 31h-371v-557h217q60 0 85 20t54 81q10 16 20.5 26t39.5 10h47v-387h-51q-25 0 -36.5 14.5t-25.5 34.5q-35 53 -55.5 66.5t-73.5 13.5h-221v-512q0 -33 11 -47.5t47 -32.5t44.5 -25t8.5 -24v-57h-455v57
q0 16 9 23.5t46 24.5t48.5 31t11.5 50v1121q0 35 -10.5 50t-47.5 33t-45 24.5t-8 23.5v57h850q25 0 98.5 5.5t98.5 8.5v-321h-58z" />
    <glyph glyph-name="G" unicode="G" horiz-adv-x="1458" 
d="M817 -20q-188 0 -327.5 65.5t-273.5 224t-134 471.5q0 188 58.5 333t153.5 243t215.5 148.5t224.5 50.5t180.5 -17.5t133.5 -50.5t70 -33q14 -1 32 15t34 16h49v-375h-72q-29 0 -37 27q-43 135 -137 217t-225 82q-78 0 -155 -37t-173 -165.5t-96 -435.5t135.5 -486
t339.5 -179q281 0 281 178v205q0 25 -16.5 37t-50.5 26t-42 19.5t-8 26.5v59h350q-8 -64 -8 -117v-233q0 -35 11.5 -54.5t49.5 -32.5t46 -19.5t8 -22.5v-51q-360 -135 -617 -135z" />
    <glyph glyph-name="H" unicode="H" horiz-adv-x="1542" 
d="M1004 0v57q0 16 8 23.5t45 24.5t47 31t10 50v523h-686v-523q0 -33 10 -47.5t46 -32.5t44.5 -25t8.5 -24v-57h-451v57q0 16 9 23.5t46 24.5t47.5 31t10.5 50v1121q0 35 -11.5 51t-47.5 32t-45 23.5t-9 24.5v57h451v-57q0 -16 -8.5 -23.5t-34.5 -20.5q-48 -24 -57 -36.5
t-9 -50.5v-476h686v476q0 39 -11 52t-47 31t-44 24.5t-8 23.5v57h450v-57q0 -16 -8 -23.5t-34 -20.5q-48 -24 -58.5 -37.5t-10.5 -49.5v-1121q0 -33 11.5 -47.5t47.5 -32.5t44 -25t8 -24v-57h-450z" />
    <glyph glyph-name="I" unicode="I" horiz-adv-x="634" 
d="M90 0v57q0 16 10 23.5t46 24.5t46.5 31t10.5 50v1121q0 35 -11.5 50t-47.5 33t-45 24.5t-9 23.5v57h453v-57q0 -16 -9.5 -23.5t-34.5 -20.5q-47 -25 -57 -37t-10 -50v-1121q0 -37 11.5 -49.5t46.5 -30.5t44 -25t9 -24v-57h-453z" />
    <glyph glyph-name="J" unicode="J" horiz-adv-x="933" 
d="M272 254q0 -76 -51 -109q6 -23 42 -41t72 -18q83 0 138 62t55 192v967q0 35 -12 50t-48 33t-45 24.5t-9 23.5v57h454v-57q0 -17 -8 -24t-34 -20q-48 -24 -57 -36.5t-9 -50.5v-881q0 -193 -113 -319.5t-315 -126.5q-139 0 -225.5 65.5t-86.5 143.5t36 123.5t94 45.5
t90 -29.5t32 -74.5z" />
    <glyph glyph-name="K" unicode="K" horiz-adv-x="1380" 
d="M883 0v55q0 14 11 21.5t40 24t29 35.5t-42 61t-100 110q-55 58 -162 176q-106 117 -231 254v-551q0 -33 10 -47.5t46 -32.5t44.5 -25t8.5 -24v-57h-451v57q0 16 8 23.5t45 25.5t48.5 31t11.5 49v1121q0 35 -11.5 50t-47.5 33t-45 24.5t-9 23.5v57h451v-57
q0 -16 -8.5 -23.5t-34.5 -20.5q-48 -24 -57 -36.5t-9 -50.5v-463q163 156 256.5 247t109.5 107q48 46 86 95.5t38 68.5q0 20 -16.5 29.5t-37.5 17.5t-27 14.5t-6 18.5v53h463v-55q0 -23 -9 -30.5t-49 -21.5q-98 -36 -172 -105q-27 -25 -61 -57t-112 -104q-77 -73 -285 -264
q171 -188 383 -412q53 -59 101 -108q82 -93 133 -141q47 -54 105 -86q57 -31 67 -37t10 -23v-51h-522z" />
    <glyph glyph-name="L" unicode="L" horiz-adv-x="1187" 
d="M84 0v57q0 16 9 23.5t46 24.5t48.5 31t11.5 50v1121q0 35 -10.5 50t-47.5 33t-45 24.5t-8 23.5v57h449v-57q0 -16 -8.5 -23.5t-34.5 -20.5q-48 -24 -57 -36.5t-9 -50.5v-1188h403q88 0 133 39.5t93 154.5q10 23 17 32t28 9h59v-354h-1077z" />
    <glyph glyph-name="M" unicode="M" horiz-adv-x="1792" 
d="M1255 0v57q0 16 8.5 23.5t44.5 25.5t47 31t11 49v1139h-8l-451 -1305q-10 -24 -54 -24t-54 24l-445 1297h-8v-1088q0 -75 44 -108t54 -40t11 -22v-59h-369v59q0 14 9 21.5t43 33.5q61 47 61 115v1078q0 35 -11.5 50t-47.5 33t-45 24.5t-9 23.5v57h434l383 -1130l383 1130
h418v-57q0 -16 -8 -23.5t-45 -24.5t-47.5 -30.5t-10.5 -52.5v-1121q0 -33 11.5 -47.5t46.5 -32.5t44 -25t9 -24v-57h-449z" />
    <glyph glyph-name="N" unicode="N" horiz-adv-x="1464" 
d="M1274 1266v-1278h-103l-831 1272v-1031q0 -39 14.5 -69.5t87.5 -79.5q10 -8 11 -23v-57h-367v57q0 14 9 21.5t43 33.5q61 47 61 115v1082q0 35 -10.5 50t-47.5 33t-46 24.5t-9 23.5v55h365l682 -1055v824q0 75 -60 125q-31 23 -42 29t-11 24v53h364v-55q0 -17 -9 -24
t-43 -32q-58 -43 -58 -118z" />
    <glyph glyph-name="O" unicode="O" horiz-adv-x="1517" 
d="M1180 744q0 318 -116 484.5t-308 166.5t-305 -168.5t-113 -478.5q0 -309 113 -478.5t305 -169.5t308 163t116 481zM1245.5 197q-190.5 -217 -487.5 -217q-147 0 -272.5 56t-264.5 214.5t-139 492.5t139 496t264 219.5t274 57.5t272.5 -57.5t264 -219t140.5 -493.5
t-190.5 -549z" />
    <glyph glyph-name="P" unicode="P" horiz-adv-x="1198" 
d="M901 1083q0 130 -82 211.5t-250 81.5h-141v-592h150q166 0 244.5 84.5t78.5 214.5zM1017 788.5q-140 -126.5 -427 -126.5h-162v-476q0 -37 12 -49.5t46 -30.5t43.5 -25t9.5 -24v-57h-455v57q0 16 9 23.5t46 24.5t48.5 31t11.5 50v1121q0 35 -10.5 50t-47.5 33t-45 24.5
t-8 23.5v57h559q246 0 378 -115.5t132 -290t-140 -301z" />
    <glyph glyph-name="Q" unicode="Q" horiz-adv-x="1521" 
d="M1067 1224.5q-113 170.5 -305 170.5t-308 -167t-116 -479t113.5 -483.5t307.5 -171.5t307.5 168.5t113.5 480.5q0 311 -113 481.5zM1390 -172q44 0 123 31v-84q-68 -72 -148.5 -94.5t-134.5 -22.5q-156 0 -340 143q-173 135 -288 199q-239 55 -379.5 257t-140.5 491
q0 331 190 549.5t488 218.5t487 -219.5t189 -531.5t-151 -518.5t-398 -250.5q96 -26 183 -69t120 -57.5t63.5 -24t61.5 -13.5t75 -4z" />
    <glyph glyph-name="R" unicode="R" horiz-adv-x="1353" 
d="M915 1102q0 139 -88 206.5t-223 67.5h-176v-569h152q335 0 335 295zM480 686h-52v-500q0 -33 10 -47.5t46 -32.5t45.5 -25t9.5 -24v-57h-455v57q0 16 9 23.5t46 24.5t48.5 31t11.5 50v1121q0 35 -10.5 50t-47.5 33t-45 24.5t-8 23.5v57h598q235 0 362.5 -111t127.5 -282
q0 -136 -103 -245.5t-293 -139.5q70 -28 133.5 -108t161.5 -241q99 -161 130.5 -201t74.5 -58t59.5 -27.5t16.5 -26.5v-55h-318q-10 16 -44 70t-89 141q-55 86 -96 153q-100 162 -166.5 235.5t-150.5 84.5q-6 2 -12 2z" />
    <glyph glyph-name="S" unicode="S" horiz-adv-x="1122" 
d="M1057 459q0 -187 -128 -333t-362 -146q-179 0 -307 66q-14 7 -30 7t-37 -24q-20 -29 -48 -29h-63v406h68q16 0 24 -4.5t31 -55.5t102.5 -149.5t259.5 -98.5q132 0 215.5 77.5t83.5 194.5q0 118 -62.5 177t-148.5 92q-188 72 -252 99q-135 55 -205.5 155t-70.5 196
q0 186 118.5 306.5t307.5 120.5q119 0 245 -71q12 -7 26 -7t22 9q20 21 43 21h53v-368h-63q-31 0 -39 24q-60 191 -152 232t-143 41q-98 0 -167 -57t-69 -144q0 -86 42 -134t118 -82t254 -101q334 -128 334 -420z" />
    <glyph glyph-name="T" unicode="T" horiz-adv-x="1267" 
d="M1196 1182q-53 0 -70 45q-29 84 -67.5 117.5t-102.5 33.5h-206v-1192q0 -37 13 -49.5t48 -30.5t45 -25t10 -24v-57h-465v57q0 16 10.5 23.5t45.5 25.5t48 31t13 49v1192h-209q-61 0 -100 -33.5t-68 -117.5q-15 -45 -69 -45h-47v327q21 -3 74 -7q53 -3 81.5 -5t46.5 -2
h811q20 0 49 2t82 6t74 6v-327h-47z" />
    <glyph glyph-name="U" unicode="U" horiz-adv-x="1490" 
d="M780 129q379 0 379 422v717q0 74 -57 116q-33 24 -43 32q-10 7 -10 24v55h366v-55q0 -17 -9 -25t-43 -33t-46 -50t-12 -62v-729q0 -232 -139 -396.5t-415 -164.5q-275 0 -419 151t-144 395v781q0 35 -10 50t-47 33t-46 24.5t-9 23.5v57h452v-57q0 -18 -8 -24.5t-44 -23.5
t-47 -33t-11 -50v-770q0 -186 94 -297t268 -111z" />
    <glyph glyph-name="V" unicode="V" horiz-adv-x="1437" 
d="M748 -16h-35q-25 0 -33 20l-526 1294q-25 57 -97 93q-35 16 -43 23t-8 24v57h483v-45q0 -16 -9 -23.5t-40 -25.5q-45 -29 -45 -59t35 -117l348 -879l334 879q35 88 35 116.5t-15.5 41t-41.5 24.5q-52 23 -52 53v35h389v-47q0 -16 -9 -25.5t-31.5 -26t-47.5 -34t-57 -96.5
l-504 -1262q-8 -20 -30 -20z" />
    <glyph glyph-name="W" unicode="W" horiz-adv-x="2060" 
d="M1425 -16h-43q-29 0 -34 20l-310 907l-307 -907q-6 -20 -29 -20h-43q-25 0 -32 20l-469 1292q-20 59 -92 95q-35 16 -43.5 23t-8.5 24v57h475v-45q0 -18 -9 -26t-46 -32t-37 -49t31 -124l295 -852l252 725l-76 204q-21 65 -90 95q-33 16 -41 23t-8 24v57h473v-45
q0 -16 -9.5 -23t-49.5 -31t-41 -57q0 -14 30 -116l283 -861l283 863q12 43 17 65.5t8 35.5t3 28q0 31 -55 51q-29 14 -41 25.5t-12 29.5v35h391v-47q0 -16 -9.5 -26.5t-46.5 -36.5q-36 -25 -52 -42.5t-38 -76.5l-440 -1262q-6 -20 -29 -20z" />
    <glyph glyph-name="X" unicode="X" horiz-adv-x="1341" 
d="M844 0v39q0 16 4 24.5t24 18.5q50 24 50 58t-31 85l-260 406l-262 -398q-35 -49 -35 -85q0 -26 67 -58q37 -16 37 -47v-43h-422v47q0 16 7 27.5t35 21.5q53 19 87 53t76 99l336 491l-352 545q-15 20 -25 36t-27.5 30t-57.5 33t-47 29.5t-7 27.5v55h485v-39
q0 -16 -4 -24.5t-23 -18.5q-53 -28 -53 -59t31 -82l228 -352l227 344q31 51 31 75t-17.5 37t-48.5 29q-33 14 -33 45v45h410v-47q0 -16 -7 -27.5t-33 -20.5q-43 -15 -77 -49t-80 -102l-301 -438l391 -600q43 -61 65.5 -75.5t51.5 -29.5t37 -24.5t8 -26.5v-55h-485z" />
    <glyph glyph-name="Y" unicode="Y" horiz-adv-x="1302" 
d="M774 186q0 -35 11.5 -48.5t46.5 -31.5t45 -25t10 -24v-57h-459v57q0 16 9 23.5t46 24.5t48.5 31t11.5 50v492l-391 622q-38 61 -86 84t-56 30t-8 24v57h487v-39q0 -18 -6 -25.5t-45 -28.5t-39 -47t41 -91l271 -441l260 437q43 71 43 93q0 23 -14 32.5t-40 20.5
t-38.5 19.5t-12.5 24.5v45h389v-47q0 -16 -9 -24.5t-32 -23.5q-49 -32 -70 -54t-54 -76l-359 -588v-496z" />
    <glyph glyph-name="Z" unicode="Z" horiz-adv-x="1234" 
d="M47 0v47q0 23 9.5 40t25.5 44l795 1245h-463q-61 0 -102.5 -33.5t-69.5 -117.5q-15 -45 -70 -45h-47v329q98 -14 211 -14h827v-43q0 -31 -8 -47t-25 -39l-794 -1247h493q142 0 181 68.5t54 106.5t23.5 48t30.5 10h58v-364l-211 12h-918z" />
    <glyph glyph-name="bracketleft" unicode="[" horiz-adv-x="737" 
d="M145 -389v1884h533v-100h-324v-1684h324v-100h-533z" />
    <glyph glyph-name="backslash" unicode="\" horiz-adv-x="995" 
d="M844 -389l-731 1884h153l729 -1884h-151z" />
    <glyph glyph-name="bracketright" unicode="]" horiz-adv-x="737" 
d="M59 -389v100h324v1684h-324v100h533v-1884h-533z" />
    <glyph glyph-name="asciicircum" unicode="^" horiz-adv-x="1548" 
d="M1090 643l-316 674l-315 -674h-168l409 852h148l409 -852h-167z" />
    <glyph glyph-name="underscore" unicode="_" horiz-adv-x="1036" 
d="M-4 -213v94h1044v-94h-1044z" />
    <glyph glyph-name="grave" unicode="`" 
d="M178 1280q0 37 23.5 64.5t57.5 27.5t60.5 -10t61.5 -49l254 -291l-49 -35l-320 184q-88 51 -88 109z" />
    <glyph glyph-name="a" unicode="a" horiz-adv-x="966" 
d="M270 264q0 -86 44 -125t92 -39q80 0 138 45t58 109v209q-158 -2 -245 -57.5t-87 -141.5zM877 123q29 0 57 31l43 -56q-29 -47 -78 -78.5t-102 -31.5t-99.5 30.5t-68.5 87.5q-111 -124 -271 -124q-196 0 -247.5 97t-51.5 163q0 137 136.5 225t408.5 88q0 238 -170 238
q-51 0 -76 -9q-4 -70 -28.5 -116.5t-89.5 -46.5q-109 0 -109 102q0 67 81.5 119.5t202.5 52.5q217 0 305.5 -94.5t88.5 -259.5v-344q0 -74 68 -74z" />
    <glyph glyph-name="b" unicode="b" horiz-adv-x="1064" 
d="M791 444q0 318 -240 318q-110 0 -197 -96v-486q23 -25 70 -53.5t115 -28.5q131 0 191.5 95t60.5 251zM354 788q111 97 260 97t270.5 -114t121.5 -312t-117.5 -337.5t-317.5 -139.5q-122 0 -241 71q-28 20 -45 7q-16 -13 -37 -31.5t-41 -32.5t-39 -14t-18 18v1298
q0 39 -7.5 55.5t-37.5 32.5t-39 20.5t-9 18.5v52l297 18v-707z" />
    <glyph glyph-name="c" unicode="c" horiz-adv-x="845" 
d="M844 186q-121 -204 -365 -204q-172 0 -296 120t-124 316t124.5 331.5t310.5 135.5q143 0 222 -58.5t79 -130.5t-35 -99.5t-76 -27.5t-89 30t-7 157q-30 24 -95 24q-112 0 -166.5 -89t-54.5 -230q0 -142 62 -247t190 -105t256 143z" />
    <glyph glyph-name="d" unicode="d" horiz-adv-x="1079" 
d="M707 668q-80 94 -201 94q-120 0 -176 -90.5t-56 -204.5q0 -190 66.5 -272t171.5 -82t195 86v469zM711 92q-103 -108 -265 -108t-274.5 128t-112.5 327t118 322.5t284 123.5q94 0 151.5 -31t94.5 -66v510q0 39 -9.5 55.5t-38.5 32.5t-41 20.5t-12 18.5v52l305 18v-1319
q0 -41 6.5 -53t37.5 -27q30 -14 38 -18t8 -17v-51l-290 -12v94z" />
    <glyph glyph-name="e" unicode="e" horiz-adv-x="929" 
d="M466 786q-64 0 -120.5 -60t-73.5 -159h396q-9 103 -38.5 144t-64.5 58t-99 17zM511 -18q-119 0 -201.5 37.5t-137.5 99t-84 141.5t-29 166t29 171t83 150.5t135 106.5t229.5 41t246 -129t97.5 -307h-615q0 -154 68 -254.5t207 -100.5t272 158l66 -69
q-32 -70 -139.5 -140.5t-226.5 -70.5z" />
    <glyph glyph-name="f" unicode="f" horiz-adv-x="628" 
d="M383 1135v-275h240v-108h-238v-586q0 -41 8 -51.5t37 -24.5t40 -20.5t11 -18.5v-51h-393v51q0 13 9 17t39 20t37 26.5t7 51.5v586h-92v57q0 12 11.5 19.5t39.5 21.5t34.5 28.5t6.5 83.5t24.5 172t101 232t247.5 129q88 0 125 -41t37 -88t-29 -80t-74 -33t-82.5 29
t-40.5 102q-106 -35 -106 -249z" />
    <glyph glyph-name="g" unicode="g" horiz-adv-x="956" 
d="M623 574q0 146 -63.5 179t-130 33t-107.5 -60t-41 -158q0 -97 47 -158.5t126 -61.5t124 67.5t45 158.5zM459 139q415 0 415 -252q0 -131 -128.5 -212t-308.5 -81q-179 0 -265 44.5t-86 115.5q0 49 33 77t80 28q100 0 100 -133q10 -6 49 -16.5t79 -10.5q99 0 184 38.5
t85 117.5q0 110 -284 110q-192 0 -336 -18q-62 0 -29 51q13 20 90.5 160t85.5 155q-145 100 -145 251t108 241t264 90t257 -86q25 35 67.5 62.5t89.5 26.5q105 -2 105 -89q0 -35 -23.5 -56.5t-54 -21t-58.5 18.5t-45 18t-26 -25q53 -80 53 -158q0 -146 -97.5 -241.5
t-268.5 -95.5q-78 0 -142 22l-71 -143q117 12 223 12z" />
    <glyph glyph-name="h" unicode="h" horiz-adv-x="1107" 
d="M642 885q152 0 230 -80t78 -215v-424q0 -41 10 -57t72 -41q8 -4 8 -17v-51h-387v51q1 13 9 17t38 20t36.5 26.5t6.5 51.5v418q0 88 -49 129t-119 41q-123 0 -202 -107v-481q0 -41 9 -56.5t73 -41.5q8 -4 8 -17v-51h-387v51q0 13 9 17t39 20t37 26.5t7 51.5v1132
q0 39 -8 54.5t-38 31.5t-39 21.5t-9 19.5v52l299 18v-727q117 117 269 117z" />
    <glyph glyph-name="i" unicode="i" horiz-adv-x="552" 
d="M92 0v51q0 14 9 16.5t39 18.5t36 27.5t6 52.5v520q0 41 -7 56.5t-38 29.5t-40 20.5t-9 16.5v51l299 19v-713q0 -41 6 -51.5t36 -26.5t38 -20.5t8 -16.5v-51h-383zM399 1276q0 -53 -37.5 -92t-91.5 -39t-92.5 39t-38.5 92t38 92t92 39t92 -39t38 -92z" />
    <glyph glyph-name="j" unicode="j" horiz-adv-x="534" 
d="M184 -96v782q0 41 -9 56.5t-40 29.5t-40 20.5t-9 16.5v51l305 19v-799q0 -217 -90.5 -350t-255.5 -133q-86 0 -126 37.5t-40 83.5t27.5 78t75.5 32t80 -34t32 -101q90 13 90 211zM397 1276q0 -53 -36.5 -92t-90.5 -39t-92.5 39t-38.5 92t38 92t92 39t91 -39t37 -92z" />
    <glyph glyph-name="k" unicode="k" horiz-adv-x="1040" 
d="M668 739q0 14 -12.5 21.5t-40.5 18.5t-35 18.5t-7 17.5v45h431v-49q0 -18 -48 -36q-75 -27 -134 -67t-199 -161q12 -18 51 -71.5t81 -113.5t76.5 -108.5t65.5 -91.5t74 -63q43 -19 53 -25t10 -17v-57h-432v49q0 10 9 15.5t37 18.5t28 33t-31 63t-49 71q-18 27 -38 55.5
t-38 54.5t-31 43q-14 18 -16 23l-102 -90v-170q0 -39 6 -51t36 -28q30 -15 39 -19t9 -17v-51h-383v51q0 13 9 17t39 20t36 26.5t6 51.5v1132q0 41 -7.5 58t-74.5 51q-10 4 -10 18v52l297 18v-1042q295 258 295 286z" />
    <glyph glyph-name="l" unicode="l" horiz-adv-x="542" 
d="M80 0v51q0 14 8 16.5t39 18.5t37 27.5t6 52.5v1139q0 33 -7.5 50.5t-74.5 51.5q-10 4 -10 18v52l297 18v-1329q0 -41 6 -51.5t36 -26.5t38 -20.5t8 -16.5v-51h-383z" />
    <glyph glyph-name="m" unicode="m" horiz-adv-x="1648" 
d="M649 885q177 0 250 -135q66 63 131.5 99t157.5 36q141 0 222 -80t81 -215v-424q0 -39 5.5 -50.5t36.5 -27.5q32 -16 40 -20.5t8 -16.5v-51h-383v51q0 13 8 17t37 19t35 26.5t6 52.5v418q0 80 -43 125t-105 45t-116.5 -23.5t-81.5 -68.5v-496q0 -39 5.5 -50.5t36.5 -27.5
q32 -16 39 -20.5t7 -16.5v-51h-383v51q0 13 8 17t39 20t37 26.5t6 51.5v414q0 174 -158 174q-51 0 -106 -27t-84 -70v-491q0 -39 5.5 -50.5t36.5 -27.5q32 -16 40 -20.5t8 -16.5v-51h-385v51q0 14 8 16.5t39 18.5t37 27.5t6 52.5v520q0 41 -7 56.5t-38 28.5t-40 19.5
t-9 18.5v51l297 19v-117q41 45 102.5 84t163.5 39z" />
    <glyph glyph-name="n" unicode="n" horiz-adv-x="1122" 
d="M652 885q158 0 235.5 -80t77.5 -215v-424q0 -39 6 -51t36 -28q30 -15 39 -19t9 -17v-51h-389v51q0 14 10 19q10 2 40 18t36 26.5t6 51.5v418q0 88 -49.5 128t-113.5 40t-121.5 -28t-88.5 -73v-485q0 -39 5.5 -50.5t36.5 -27.5q32 -16 40 -20.5t8 -16.5v-51h-385v51
q0 13 8 17t39 20t37 26.5t6 51.5v520q0 41 -7 56.5t-38 28.5t-39 19.5t-8 18.5v51l285 19v-115q121 121 279 121z" />
    <glyph glyph-name="o" unicode="o" horiz-adv-x="1003" 
d="M727 436q0 164 -57.5 255t-168 91t-166.5 -90t-56 -254t56 -255t166.5 -91t168 90t57.5 254zM183 110q-124 128 -124 327t124 328.5t318 129.5t318.5 -130.5t124.5 -327.5t-123 -326t-318.5 -129t-319.5 128z" />
    <glyph glyph-name="p" unicode="p" horiz-adv-x="1071" 
d="M571 102q158 0 192 129.5t34 223.5q0 145 -64.5 222t-143.5 77t-133.5 -34t-78.5 -69v-463q86 -86 194 -86zM899 122q-113 -140 -287 -140q-86 0 -142 28.5t-93 57.5v-289q0 -39 5.5 -50.5t35.5 -27.5q31 -15 41 -21t10 -16v-51h-387v51q0 12 8 16.5t38 20.5t37 26.5
t7 51.5v907q0 41 -7 56.5t-38 28.5t-40 19.5t-9 18.5v51l287 19v-113q35 41 101 80t152 39t156 -31t154 -121.5t84 -280.5t-113 -330z" />
    <glyph glyph-name="q" unicode="q" horiz-adv-x="1044" 
d="M528 782q-110 0 -182 -84t-72 -253t67 -249.5t170 -80.5t181 78v522q-23 25 -67.5 46t-96.5 21zM600 -387v51q0 12 9 16t39 21q30 16 37 26.5t7 51.5v311q-35 -31 -90 -62.5t-143 -31.5q-177 0 -288.5 128.5t-111.5 319.5t129 321t301 130q117 -1 217 -61q36 -22 48 -21
q12 0 25.5 8.5t27.5 23.5t20 21l15 16q16 15 30 15q25 0 25 -23v-1095q0 -54 14.5 -63t36.5 -20t30.5 -16.5t8.5 -15.5v-51h-387z" />
    <glyph glyph-name="r" unicode="r" horiz-adv-x="753" 
d="M758 762q0 -47 -28 -86t-76 -39q-86 0 -115 84q-55 -4 -104.5 -83.5t-49.5 -174.5v-297q0 -41 8 -51.5t37 -24.5t40 -20.5t11 -18.5v-51h-391v51q0 14 8 16.5t39 18.5t37 27.5t6 52.5v520q0 41 -7 56.5t-39 29.5t-40 19.5t-8 17.5v51l285 19v-191q125 197 254 197
q68 0 100.5 -38t32.5 -85z" />
    <glyph glyph-name="s" unicode="s" horiz-adv-x="804" 
d="M407 795q-55 0 -94 -31t-39 -81t54.5 -83t186.5 -81t184.5 -108.5t52.5 -158.5t-95.5 -184t-245.5 -86t-247.5 56t-97.5 134q0 45 26.5 80t71.5 35q69 0 93 -38t24 -71t-11 -61q58 -37 136 -37q79 0 126.5 35t47.5 91t-61.5 90.5t-187.5 82.5q-126 47 -174 110t-48 131
q0 118 93.5 194.5t220.5 76.5q126 0 201.5 -45t75.5 -103q0 -57 -30.5 -84.5t-74.5 -27.5t-70.5 25.5t-28.5 65.5t4 54q-38 19 -93 19z" />
    <glyph glyph-name="t" unicode="t" horiz-adv-x="628" 
d="M453 113q42 0 108 34l41 -92q-41 -41 -114.5 -57t-112.5 -16q-217 0 -217 221v549h-95v59q0 12 12.5 19.5t43.5 21.5t41 26.5t10 41.5v192q0 25 20 29l172 22v-303h209v-108h-209v-547q0 -92 91 -92z" />
    <glyph glyph-name="u" unicode="u" horiz-adv-x="1107" 
d="M158 297v391q0 41 -8.5 55.5t-38.5 27.5t-37.5 19.5t-7.5 18.5v51l301 19v-596q0 -88 49.5 -130t113.5 -42t118 29.5t85 74.5v479q0 35 -8 49.5t-39 27.5t-40 19.5t-9 18.5v51l301 19v-697q0 -40 6.5 -50.5t38.5 -26.5q31 -15 39 -20t8 -17v-58l-278 -12v111
q-122 -127 -297 -127q-137 0 -217 89.5t-80 225.5z" />
    <glyph glyph-name="v" unicode="v" horiz-adv-x="948" 
d="M522 -14h-71q-20 0 -25 12l-317 713q-19 39 -52 56t-41 21.5t-8 16.5v55h414v-49q0 -12 -10 -18.5t-42 -19.5t-32 -39q0 -25 9 -49t13 -36l168 -416l162 406q17 38 17 67t-12.5 41.5t-48.5 28.5t-36 33v51h344v-51q0 -12 -9 -18.5t-39 -22.5t-48 -44t-41 -77l-276 -649
q-4 -12 -19 -12z" />
    <glyph glyph-name="w" unicode="w" horiz-adv-x="1415" 
d="M1016 -12h-72q-20 0 -26 12l-207 567l-199 -567q-4 -12 -18 -12h-72q-21 0 -27 12l-278 711q-10 23 -23.5 34t-40.5 25t-35 18.5t-8 16.5v55h408v-49q0 -12 -8 -19.5t-42 -20.5t-34 -46q0 -10 16 -70l144 -415l213 620h94l219 -620l129 399q4 16 11 42t7 39q0 26 -50 50
t-50 41v49h346v-51q0 -12 -9 -18.5t-40 -22.5q-59 -29 -88 -115l-242 -653q-4 -12 -18 -12z" />
    <glyph glyph-name="x" unicode="x" horiz-adv-x="999" 
d="M584 0v45q0 10 12 17t28 18t17 26q0 14 -23 44l-153 190l-139 -174q-44 -55 14 -82q27 -14 33 -18.5t6 -14.5v-51h-354v51q0 12 9 20.5t70 30.5t115 99l182 215l-247 295q-23 27 -40 39t-42 30q-35 20 -35 37v43h393v-45q0 -13 -18 -25t-24.5 -18t-6.5 -19t22 -42
l123 -156l113 143q25 31 25 46t-31 34q-25 12 -32 16t-7 13v53h346v-47q0 -12 -10 -19.5t-51 -24.5t-67.5 -39.5t-61.5 -65.5l-158 -187l270 -321q35 -41 71 -62q35 -20 42.5 -28.5t7.5 -20.5v-45h-399z" />
    <glyph glyph-name="y" unicode="y" horiz-adv-x="950" 
d="M29 -277q0 55 32.5 85t79.5 30t74 -30.5t27 -69.5q68 5 118 107t64 143l-313 725q-17 35 -52 53t-44 23.5t-9 15.5v55h414v-53q0 -12 -9 -19.5t-43 -20.5t-34 -38t22 -76l170 -428l166 414q19 48 19 71t-13.5 34.5t-49.5 27.5t-36 35v53h349v-51q0 -12 -9.5 -18.5
t-41.5 -22.5t-51 -46t-40 -77l-297 -700q-79 -188 -165 -268t-169 -80q-82 0 -120.5 35.5t-38.5 90.5z" />
    <glyph glyph-name="z" unicode="z" horiz-adv-x="864" 
d="M655 0h-612v37q0 23 25 59l493 658h-219q-69 0 -94 -18.5t-37 -42t-25 -62.5q-8 -23 -39 -23h-55v260q8 0 26 -2t38 -3t40.5 -2t34.5 -1h564v-72q0 -31 -21 -59l-471 -620h272q57 0 86 33.5t45 79.5t23.5 51.5t22.5 5.5h61v-289q-110 10 -158 10z" />
    <glyph glyph-name="braceleft" unicode="{" horiz-adv-x="778" 
d="M713 -403q-210 0 -338.5 114t-128.5 291q0 66 8 131.5t8 149.5t-46 150.5t-157 88.5v56q111 23 157 88t46 149t-8 149.5t-8 142.5q0 165 129.5 279.5t337.5 114.5v-59q-223 -56 -250 -154t-27 -162l10 -235q0 -191 -107.5 -256.5t-156.5 -83.5q175 -64 219.5 -168
t44.5 -176l-10 -236q0 -128 61.5 -202t215.5 -113v-59z" />
    <glyph glyph-name="bar" unicode="|" horiz-adv-x="131" 
d="M0 -389v1884h131v-1884h-131z" />
    <glyph glyph-name="braceright" unicode="}" horiz-adv-x="778" 
d="M66 1501q207 0 336.5 -114.5t129.5 -290.5q0 -66 -8 -131.5t-8 -149.5t46 -149.5t157 -87.5v-56q-111 -22 -157 -88.5t-46 -150.5t8 -149.5t8 -142.5q0 -166 -128.5 -280t-337.5 -114v59q222 55 249 153.5t27 161.5l-10 236q0 129 75.5 214.5t188.5 129.5
q-178 66 -221 166t-43 174l10 235q0 129 -60 202t-216 114v59z" />
    <glyph glyph-name="asciitilde" unicode="~" horiz-adv-x="1548" 
d="M1000 410q-68 0 -118 24.5t-124 75.5t-126 84t-102 33q-86 0 -129.5 -68t-58.5 -166h-109q8 173 107 293.5t246 120.5q74 0 121.5 -20t119.5 -69q72 -50 125.5 -87t99.5 -37q82 0 125.5 69t57.5 164h108q-8 -174 -78.5 -262t-133.5 -121.5t-131 -33.5z" />
    <glyph glyph-name="nonbreakingspace" unicode="&#xa0;" horiz-adv-x="1126" 
 />
    <glyph glyph-name="exclamdown" unicode="&#xa1;" horiz-adv-x="686" 
d="M444.5 -358.5q-32.5 -51.5 -98.5 -51.5q-101 0 -119 70t-18 130t20 162q52 267 70 710q0 24 44 24t44 -24q16 -403 53 -611q10 -59 23.5 -135t13.5 -150q0 -73 -32.5 -124.5zM483 980q0 -58 -40 -99t-98 -41t-99 41t-41 99t41 99t99 41t98 -41t40 -99z" />
    <glyph glyph-name="cent" unicode="&#xa2;" horiz-adv-x="980" 
d="M543 1047q-104 0 -160.5 -92.5t-56.5 -235.5q0 -227 92 -284.5t146 -57.5q91 0 144 32.5t132 108.5l65 -65q-61 -118 -155.5 -157.5t-157.5 -47.5v-266h-100v266q-166 16 -270.5 135.5t-104.5 301.5t103.5 312t273.5 150v219h100v-217q128 -11 194 -66.5t66 -125.5
q0 -69 -36 -95t-79 -26t-91.5 34.5t-0.5 153.5q-38 23 -104 23z" />
    <glyph glyph-name="sterling" unicode="&#xa3;" horiz-adv-x="1112" 
d="M162 191q0 -42 27.5 -73.5t83.5 -31.5t103.5 39.5t63.5 107.5q-80 66 -147 66t-99 -33t-32 -75zM823 -18q-92 0 -161.5 50t-133.5 115q-96 -165 -260 -165q-80 0 -146.5 54.5t-66.5 156.5q0 101 69.5 161t146 60t173.5 -41q-16 128 -86 252q-4 10 -10 19t-10 20h-238v114
h187q-45 118 -45 208q0 179 130 307t328 128q153 0 248.5 -71t95.5 -176q0 -76 -38.5 -110t-84.5 -34t-82 27.5t-36 86.5t59 116q-59 49 -159 49q-99 0 -168.5 -72t-69.5 -180t70 -279h364v-114h-324q37 -99 37 -185t-28 -182q78 -45 142.5 -77t137.5 -32q107 0 199 80
l63 -88q-132 -198 -303 -198z" />
    <glyph glyph-name="currency" unicode="&#xa4;" horiz-adv-x="1576" 
d="M1196 309v334l-252 -334h252zM1348 213v-92q0 -18 8 -24.5t34 -19.5t25 -32v-45h-291v45q0 19 35 35q17 10 27 15t10 26v92h-365v98l410 543h107v-545h127v-96h-127zM467 -20h-121l797 1521h121zM195 645v43q0 18 16 27.5t43 17.5t38 17.5t11 33.5v564h-139v71l207 76h86
v-711q0 -23 10 -34t39 -17q55 -10 55 -43v-45h-366z" />
    <glyph glyph-name="currency" unicode="&#x20ac;" horiz-adv-x="1576" 
d="M1196 309v334l-252 -334h252zM1348 213v-92q0 -18 8 -24.5t34 -19.5t25 -32v-45h-291v45q0 19 35 35q17 10 27 15t10 26v92h-365v98l410 543h107v-545h127v-96h-127zM467 -20h-121l797 1521h121zM195 645v43q0 18 16 27.5t43 17.5t38 17.5t11 33.5v564h-139v71l207 76h86
v-711q0 -23 10 -34t39 -17q55 -10 55 -43v-45h-366z" />
    <glyph glyph-name="yen" unicode="&#xa5;" horiz-adv-x="1300" 
d="M1130 807v-100h-327l-43 -68v-80h370v-98h-368v-279q0 -33 11 -45.5t44 -30.5t43 -24t10 -23v-59h-432v59q0 16 9 22.5t43 23.5t44.5 29.5t10.5 47.5v279h-375v98h377v78l-43 70h-334v100h266l-254 403q-33 55 -80 78q-47 22 -55 29.5t-8 23.5v60h457v-43
q0 -16 -6.5 -23.5t-34.5 -25.5q-41 -23 -41 -46t43 -87l248 -404l237 399q43 74 43 97q0 22 -48 44t-48 46v43h366v-51q0 -27 -61 -63q-26 -15 -46 -34t-52 -71l-230 -375h264z" />
    <glyph glyph-name="section" unicode="&#xa7;" horiz-adv-x="1155" 
d="M852 479q0 74 -35 122t-111 90t-148 80t-130 73q-129 -85 -129 -185q0 -68 30.5 -120t116.5 -99q27 -14 67 -35.5l80 -43t76 -40.5t56 -30q127 80 127 188zM375 1235q0 -35 6 -62.5t50 -70.5t230 -135q187 -92 273 -181.5t86 -216.5q0 -88 -53.5 -173t-161.5 -154
q86 -59 117.5 -125t31.5 -141q0 -141 -117 -237.5t-285 -96.5t-275 79t-107 193q0 70 39 106.5t85 36.5t80 -27.5t34 -74.5t-20.5 -74.5t-45.5 -56.5q61 -86 213 -86q93 0 159 50t66 118q0 35 -8 62.5t-50.5 68.5t-183.5 111q-141 71 -272 156.5t-131 252.5q0 205 213 338
q-149 111 -149 279q0 131 117.5 226t282.5 95t272.5 -78.5t107.5 -191.5q0 -74 -37 -110t-83 -36t-81 27t-35 76q0 48 23 74t47 57q-65 86 -219 86q-96 0 -157.5 -51t-61.5 -113z" />
    <glyph glyph-name="dieresis" unicode="&#xa8;" 
d="M326 1155q0 -47 -34 -81t-81 -34t-81 34t-34 81t34 81t81 34t81 -34t34 -81zM723 1155q0 -47 -34 -81t-81 -34t-80.5 34t-33.5 81t33.5 81t80.5 34t81 -34t34 -81z" />
    <glyph glyph-name="copyright" unicode="&#xa9;" horiz-adv-x="1658" 
d="M826 287q-84 0 -161 34.5t-156 125.5t-79 284t124.5 311.5t279.5 118.5q106 0 200 -57q8 -8 10.5 -8t17.5 10t25 10h50v-248h-62q-29 0 -39 31q-20 66 -67 116t-101 50q-107 0 -178.5 -87.5t-71.5 -250.5q0 -162 67 -247t165 -85q133 0 191.5 68.5t74.5 89.5l64 -61
q-69 -134 -169.5 -169.5t-184.5 -35.5zM1503 729q0 139 -52 262t-143 215t-214 145.5t-264.5 53.5t-264.5 -53.5t-213 -145.5t-142 -215t-52 -262t52 -262t142 -214t213 -144.5t264.5 -53.5t264.5 53.5t214 144.5t143 214t52 262zM1589 728q0 -157 -58 -293t-161.5 -237.5
t-242 -159.5t-298 -58t-298 58t-300 216.5t-161.5 474.5q0 156 58 293t161.5 239.5t242 161t298 58.5t298 -58.5t242 -161t161.5 -239.5t58 -294z" />
    <glyph glyph-name="guillemotleft" unicode="&#xab;" 
d="M526 1788q0 76 -30.5 117t-86 41t-86 -41t-30.5 -117t30.5 -117t86 -41t86 41t30.5 117zM655 1788q0 -98 -69.5 -160.5t-176 -62.5t-176 62.5t-69.5 160.5t69.5 160.5t176 62.5t176 -62.5t69.5 -160.5z" />
    <glyph glyph-name="logicalnot" unicode="&#xac;" 
d="M150 1863q0 32 23.5 60.5t55.5 28.5q65 0 119 -49l283 -263l-45 -38l-338 149q-98 46 -98 112z" />
    <glyph glyph-name="registered" unicode="&#xae;" horiz-adv-x="1024" 
d="M608 1134.5q0 47.5 -71 47.5h-95v-123h93q23 0 48 14t25 61.5zM723 1122q0 -110 -96 -149l96 -209h-111l-90 194h-80v-194h-106v516h209q70 0 124 -41.5t54 -116.5zM915 1022q0 84 -31.5 157.5t-86 129t-128 87t-157.5 31.5t-157.5 -31.5t-128 -87t-86 -129t-31.5 -157.5
t31.5 -157.5t86 -128t128 -86.5t157.5 -32t157.5 32t128 86.5t86 128t31.5 157.5zM987 1022q0 -98 -38 -183t-102.5 -149.5t-150.5 -101.5t-184 -37t-184 37t-150.5 101.5t-102.5 149.5t-38 183t38 184t102.5 150.5t150.5 101.5t184 37t184 -37t150.5 -101.5t102.5 -150.5
t38 -184z" />
    <glyph glyph-name="degree" unicode="&#xb0;" horiz-adv-x="655" 
d="M481 1230.5q0 65.5 -42 116t-111.5 50.5t-111.5 -50.5t-42 -116t42 -115.5t111.5 -50t111.5 50t42 115.5zM594 1231q0 -55 -21.5 -103.5t-57.5 -84t-84 -56t-103.5 -20.5t-103.5 20.5t-84 56t-57.5 84t-21.5 103.5t21.5 103t57.5 84t84 56.5t103.5 20.5t103.5 -20.5
t84 -56.5t57.5 -84t21.5 -103z" />
    <glyph glyph-name="acute" unicode="&#xb4;" 
d="M647 1280q0 -57 -88 -109l-319 -184l-50 35l254 291q35 39 61.5 49t60.5 10t57.5 -27.5t23.5 -64.5z" />
    <glyph glyph-name="paragraph" unicode="&#xb6;" horiz-adv-x="1320" 
d="M582 1393q-226 0 -247.5 -127t-21.5 -192q0 -154 61 -253.5t208 -99.5v672zM74 1060q0 436 506 435h579v-57q0 -16 -9 -21.5t-48 -20.5t-52.5 -25.5t-13.5 -47.5v-1438q0 -29 14.5 -43t52.5 -29t47 -20.5t9 -21.5v-58h-274v1684h-150v-1684h-274v58q0 16 9 20.5t47 20.5
t51.5 30.5t13.5 42.5v744q-380 0 -444 164.5t-64 266.5z" />
    <glyph glyph-name="periodcentered" unicode="&#xb7;" horiz-adv-x="1660" 
d="M1550 256q0 -127 -95 -200.5t-224 -73.5t-203 48t-74 117q0 41 26 68t66.5 27t62 -24.5t21.5 -55.5t-26 -64q34 -30 112 -30t122 52t44 130t-55 118t-186 40v86q115 4 164 39t49 101t-38 97t-94 31t-89 -27q20 -25 20 -57t-24.5 -52t-58.5 -20t-59.5 21.5t-25.5 58.5
q0 68 77 115t157 47q140 0 219.5 -56.5t79.5 -132.5t-50.5 -127t-134.5 -71q94 -18 155.5 -75.5t61.5 -129.5zM467 -20h-121l797 1521h121zM195 645v43q0 18 16 27.5t43 17.5t38 17.5t11 33.5v564h-139v71l207 76h86v-711q0 -23 10 -34t39 -17q55 -10 55 -43v-45h-366z" />
    <glyph glyph-name="cedilla" unicode="&#xb8;" 
d="M381 -336q69 0 92 25.5t23 56.5t-25 55.5t-84 24.5h-15q-14 0 -24 -2l74 176h70l-35 -92q88 0 141 -38t53 -112t-61.5 -125t-190.5 -51q-72 0 -129 30t-98 60l39 64q101 -72 170 -72z" />
    <glyph glyph-name="questiondown" unicode="&#xbf;" horiz-adv-x="870" 
d="M545 -149q0 56 34.5 89t88.5 33t87 -38t33 -86q0 -101 -94 -179t-261 -78q-166 0 -264.5 87t-98.5 223q0 84 33.5 144t65.5 99t78 95q96 116 133.5 209.5t41.5 224.5q0 6 17.5 12t31.5 6t32.5 -6t18.5 -12q10 -219 -104 -436q-73 -135 -98 -194t-25 -138q0 -215 170 -215
q35 0 71.5 16.5t55.5 46.5q-47 41 -47 97zM612 980q0 -58 -40 -99t-99 -41t-100 41t-41 99t41 99t100 41t99 -41t40 -99z" />
    <glyph glyph-name="Agrave" unicode="&#xc0;" horiz-adv-x="1413" 
d="M659 1112l-237 -588h475zM936 0v49q0 16 10 25.5t49 31.5t39 46q0 23 -24 92l-64 162h-573l-64 -158q-20 -51 -20 -91t51 -61q31 -14 41 -24.5t10 -28.5v-43h-389v51q0 16 7 25.5t33 25.5q48 29 66.5 51t41.5 72l442 1043l-43 88q-8 16 -8 25t47 41q47 31 86 64
q39 32 47 32t11 -1t7 -12l529 -1296q30 -74 77.5 -96.5t56.5 -29.5t9 -26v-57h-475zM434 1863q0 32 23.5 60.5t55.5 28.5q66 0 120 -49l282 -263l-45 -38l-338 149q-98 46 -98 112z" />
    <glyph glyph-name="Aacute" unicode="&#xc1;" horiz-adv-x="1413" 
d="M659 1112l-237 -588h475zM936 0v49q0 16 10 25.5t49 31.5t39 46q0 23 -24 92l-64 162h-573l-64 -158q-20 -51 -20 -91t51 -61q31 -14 41 -24.5t10 -28.5v-43h-389v51q0 16 7 25.5t33 25.5q48 29 66.5 51t41.5 72l442 1043l-43 88q-8 16 -8 25t47 41q47 31 86 64
q39 32 47 32t11 -1t7 -12l529 -1296q30 -74 77.5 -96.5t56.5 -29.5t9 -26v-57h-475zM946 1852q0 -67 -98 -111l-338 -150l-45 39l283 262q53 50 102 50t72.5 -29t23.5 -61z" />
    <glyph glyph-name="Acircumflex" unicode="&#xc2;" horiz-adv-x="1413" 
d="M659 1112l-237 -588h475zM936 0v49q0 16 10 25.5t49 31.5t39 46q0 23 -24 92l-64 162h-573l-64 -158q-20 -51 -20 -91t51 -61q31 -14 41 -24.5t10 -28.5v-43h-389v51q0 16 7 25.5t33 25.5q48 29 66.5 51t41.5 72l442 1043l-43 88q-8 16 -8 25q-1 9 23 25q105 70 126 91
t33 21t16 -13l529 -1296q30 -74 77.5 -96.5t56.5 -29.5t9 -26v-57h-475zM961 1583l-259 197l-258 -197h-82l279 354h123l278 -354h-81z" />
    <glyph glyph-name="Atilde" unicode="&#xc3;" horiz-adv-x="1413" 
d="M659 1112l-237 -588h475zM936 0v49q0 16 10 25.5t49 31.5t39 46q0 23 -24 92l-64 162h-573l-64 -158q-20 -51 -20 -91t51 -61q31 -14 41 -24.5t10 -28.5v-43h-389v51q0 16 7 25.5t33 25.5q48 29 66.5 51t41.5 72l442 1043l-43 88q-8 16 -8 25t47 41q47 31 86 64
q39 32 47 32t11 -1t7 -12l529 -1296q30 -74 77.5 -96.5t56.5 -29.5t9 -26v-57h-475zM532 1726q-40 0 -69 -32.5t-33 -75.5h-68q0 100 63 174t137 74t110 -15t68 -33t65 -35t71 -17t66.5 32.5t32.5 75.5h67q0 -101 -62.5 -174.5t-147.5 -73.5q-68 0 -132 35q-65 35 -96.5 50
t-71.5 15z" />
    <glyph glyph-name="Adieresis" unicode="&#xc4;" horiz-adv-x="1413" 
d="M659 1112l-237 -588h475zM936 0v49q0 16 10 25.5t49 31.5t39 46q0 23 -24 92l-64 162h-573l-64 -158q-20 -51 -20 -91t51 -61q31 -14 41 -24.5t10 -28.5v-43h-389v51q0 16 7 25.5t33 25.5q48 29 66.5 51t41.5 72l442 1043l-43 88q-8 16 -8 25t47 41q47 31 86 64
q39 32 47 32t11 -1t7 -12l529 -1296q30 -74 77.5 -96.5t56.5 -29.5t9 -26v-57h-475zM594 1733q0 -47 -34 -81t-81 -34t-80.5 34t-33.5 81t33.5 80.5t80.5 33.5t81 -33.5t34 -80.5zM1032 1733q0 -47 -33.5 -81t-81 -34t-81 34t-33.5 81t33.5 80.5t81 33.5t81 -33.5
t33.5 -80.5z" />
    <glyph glyph-name="Aring" unicode="&#xc5;" horiz-adv-x="1413" 
d="M659 1112l-237 -588h475zM807 1788q0 76 -31 117t-86 41t-86 -41t-31 -117t31 -117t86 -41t86 41t31 117zM936 0v49q0 16 10 25.5t49 31.5t39 46q0 23 -24 92l-64 162h-573l-64 -158q-20 -51 -20 -91t51 -61q31 -14 41 -24.5t10 -28.5v-43h-389v51q0 16 7 25.5t33 25.5
q48 29 66.5 51t41.5 72l442 1043l-43 88q-8 16 -8 25t47 41q47 31 86 64q39 32 47 32t11 -1t7 -12l529 -1296q30 -74 77.5 -96.5t56.5 -29.5t9 -26v-57h-475zM936 1788q0 -98 -69.5 -160.5t-176 -62.5t-176.5 62.5t-70 160.5t70 160.5t176.5 62.5t176 -62.5t69.5 -160.5z
" />
    <glyph glyph-name="Ccedilla" unicode="&#xc7;" horiz-adv-x="1300" 
d="M946 -242q0 -74 -63 -125t-171 -51t-165.5 31t-93.5 61l41 64q31 -27 82 -50.5t104 -23.5t82 22.5t29 56.5t-26 58.5t-68 24.5t-62 -4l67 160q-298 15 -459 237t-161 522q0 190 57.5 336t148.5 243t205.5 146.5t220.5 49.5t179.5 -21.5t150.5 -71.5q25 -14 40 -14
t36 16.5t39 16.5h49v-375h-73q-29 0 -37 27q-41 135 -128 217t-210 82q-163 0 -292.5 -162t-129.5 -472t117 -479t294 -169t289.5 86t167.5 172l74 -80q-43 -104 -185.5 -203t-322.5 -106l-29 -72q90 0 146.5 -38t56.5 -112z" />
    <glyph glyph-name="Egrave" unicode="&#xc8;" horiz-adv-x="1216" 
d="M84 0v57q0 16 9 23.5t46 24.5t48.5 31t11.5 50v1121q0 35 -10.5 50t-47.5 33t-45 24.5t-8 23.5v57h782q99 0 197 14v-319h-49q-43 0 -58 40q-33 89 -71.5 117.5t-151.5 28.5h-309v-551h170q59 0 84 21.5t53 79.5q10 16 20.5 26.5t37.5 10.5h51v-388h-58q-25 0 -37.5 13.5
t-30.5 47.5t-41.5 51.5t-74.5 17.5h-174v-586h408q92 0 134.5 39t90.5 153q10 23 17 32t28 9h59v-352h-1081zM375 1863q0 32 23.5 60.5t55.5 28.5q67 0 119 -49l283 -263l-45 -38l-338 149q-98 46 -98 112z" />
    <glyph glyph-name="Eacute" unicode="&#xc9;" horiz-adv-x="1216" 
d="M84 0v57q0 16 9 23.5t46 24.5t48.5 31t11.5 50v1121q0 35 -10.5 50t-47.5 33t-45 24.5t-8 23.5v57h782q99 0 197 14v-319h-49q-43 0 -58 40q-33 89 -71.5 117.5t-151.5 28.5h-309v-551h170q59 0 84 21.5t53 79.5q10 16 20.5 26.5t37.5 10.5h51v-388h-58q-25 0 -37.5 13.5
t-30.5 47.5t-41.5 51.5t-74.5 17.5h-174v-586h408q92 0 134.5 39t90.5 153q10 23 17 32t28 9h59v-352h-1081zM928 1863q0 -66 -99 -112l-337 -149l-46 38l283 263q52 49 102 49t73.5 -28.5t23.5 -60.5z" />
    <glyph glyph-name="Ecircumflex" unicode="&#xca;" horiz-adv-x="1216" 
d="M84 0v57q0 16 9 23.5t46 24.5t48.5 31t11.5 50v1121q0 35 -10.5 50t-47.5 33t-45 24.5t-8 23.5v57h782q99 0 197 14v-319h-49q-43 0 -58 40q-33 89 -71.5 117.5t-151.5 28.5h-309v-551h170q59 0 84 21.5t53 79.5q10 16 20.5 26.5t37.5 10.5h51v-388h-58q-25 0 -37.5 13.5
t-30.5 47.5t-41.5 51.5t-74.5 17.5h-174v-586h408q92 0 134.5 39t90.5 153q10 23 17 32t28 9h59v-352h-1081zM883 1602l-258 196l-258 -196h-82l278 354h123l279 -354h-82z" />
    <glyph glyph-name="Edieresis" unicode="&#xcb;" horiz-adv-x="1216" 
d="M84 0v57q0 16 9 23.5t46 24.5t48.5 31t11.5 50v1121q0 35 -10.5 50t-47.5 33t-45 24.5t-8 23.5v57h782q99 0 197 14v-319h-49q-43 0 -58 40q-33 89 -71.5 117.5t-151.5 28.5h-309v-551h170q59 0 84 21.5t53 79.5q10 16 20.5 26.5t37.5 10.5h51v-388h-58q-25 0 -37.5 13.5
t-30.5 47.5t-41.5 51.5t-74.5 17.5h-174v-586h408q92 0 134.5 39t90.5 153q10 23 17 32t28 9h59v-352h-1081zM522 1753q0 -47 -33.5 -81t-81 -34t-81 34t-33.5 81t33.5 81t81 34t81 -34t33.5 -81zM961 1753q0 -47 -34 -81t-81 -34t-81 34t-34 81t34 81t81 34t81 -34t34 -81z
" />
    <glyph glyph-name="Igrave" unicode="&#xcc;" horiz-adv-x="634" 
d="M90 0v57q0 16 10 23.5t46 24.5t46.5 31t10.5 50v1121q0 35 -11.5 50t-47.5 33t-45 24.5t-9 23.5v57h453v-57q0 -16 -9.5 -23.5t-34.5 -20.5q-47 -25 -57 -37t-10 -50v-1121q0 -37 11.5 -49.5t46.5 -30.5t44 -25t9 -24v-57h-453zM59 1863q0 32 23.5 60.5t55.5 28.5
q66 0 120 -49l283 -263l-45 -38l-338 149q-99 46 -99 112z" />
    <glyph glyph-name="Iacute" unicode="&#xcd;" horiz-adv-x="634" 
d="M90 0v57q0 16 10 23.5t46 24.5t46.5 31t10.5 50v1121q0 35 -11.5 50t-47.5 33t-45 24.5t-9 23.5v57h453v-57q0 -16 -9.5 -23.5t-34.5 -20.5q-47 -25 -57 -37t-10 -50v-1121q0 -37 11.5 -49.5t46.5 -30.5t44 -25t9 -24v-57h-453zM594 1863q0 -66 -98 -112l-338 -149
l-45 38l282 263q52 49 102 49t73.5 -28.5t23.5 -60.5z" />
    <glyph glyph-name="Icircumflex" unicode="&#xce;" horiz-adv-x="634" 
d="M90 0v57q0 16 10 23.5t46 24.5t46.5 31t10.5 50v1121q0 35 -11.5 50t-47.5 33t-45 24.5t-9 23.5v57h453v-57q0 -16 -9.5 -23.5t-34.5 -20.5q-47 -25 -57 -37t-10 -50v-1121q0 -37 11.5 -49.5t46.5 -30.5t44 -25t9 -24v-57h-453zM555 1602l-238 196l-237 -196h-82l258 354
h123l258 -354h-82z" />
    <glyph glyph-name="Idieresis" unicode="&#xcf;" horiz-adv-x="634" 
d="M90 0v57q0 16 10 23.5t46 24.5t46.5 31t10.5 50v1121q0 35 -11.5 50t-47.5 33t-45 24.5t-9 23.5v57h453v-57q0 -16 -9.5 -23.5t-34.5 -20.5q-47 -25 -57 -37t-10 -50v-1121q0 -37 11.5 -49.5t46.5 -30.5t44 -25t9 -24v-57h-453zM229 1753q0 -47 -33.5 -81t-80.5 -34
t-81 34t-34 81t34 81t81 34t80.5 -34t33.5 -81zM635 1753q0 -47 -34 -81t-81 -34t-80.5 34t-33.5 81t33.5 81t80.5 34t81 -34t34 -81z" />
    <glyph glyph-name="Ntilde" unicode="&#xd1;" horiz-adv-x="1464" 
d="M1274 1266v-1278h-103l-831 1272v-1031q0 -39 14.5 -69.5t87.5 -79.5q10 -8 11 -23v-57h-367v57q0 14 9 21.5t43 33.5q61 47 61 115v1082q0 35 -10.5 50t-47.5 33t-46 24.5t-9 23.5v55h365l682 -1055v824q0 75 -60 125q-31 23 -42 29t-11 24v53h364v-55q0 -17 -9 -24
t-43 -32q-58 -43 -58 -118zM764 1680q-64 35 -95.5 50t-71.5 15t-68.5 -33t-32.5 -76h-68q0 101 62.5 174.5t138.5 73.5t109.5 -15t66.5 -33t65 -35t71 -17q38 0 66.5 32.5t32.5 75.5h68q0 -100 -62.5 -173.5t-139.5 -73.5q-78 0 -142 35z" />
    <glyph glyph-name="Ograve" unicode="&#xd2;" horiz-adv-x="1517" 
d="M1180 744q0 318 -116 484.5t-308 166.5t-305 -168.5t-113 -478.5q0 -309 113 -478.5t305 -169.5t308 163t116 481zM1245.5 197q-190.5 -217 -487.5 -217q-147 0 -272.5 56t-264.5 214.5t-139 492.5t139 496t264 219.5t274 57.5t272.5 -57.5t264 -219t140.5 -493.5
t-190.5 -549zM512 1863q0 32 23.5 60.5t55.5 28.5q66 0 120 -49l282 -263l-45 -38l-338 149q-98 46 -98 112z" />
    <glyph glyph-name="Oacute" unicode="&#xd3;" horiz-adv-x="1517" 
d="M1180 744q0 318 -116 484.5t-308 166.5t-305 -168.5t-113 -478.5q0 -309 113 -478.5t305 -169.5t308 163t116 481zM1245.5 197q-190.5 -217 -487.5 -217q-147 0 -272.5 56t-264.5 214.5t-139 492.5t139 496t264 219.5t274 57.5t272.5 -57.5t264 -219t140.5 -493.5
t-190.5 -549zM989 1863q0 -66 -98 -112l-338 -149l-45 38l283 263q52 49 102 49q49 0 72.5 -28.5t23.5 -60.5z" />
    <glyph glyph-name="Ocircumflex" unicode="&#xd4;" horiz-adv-x="1517" 
d="M1180 744q0 318 -116 484.5t-308 166.5t-305 -168.5t-113 -478.5q0 -309 113 -478.5t305 -169.5t308 163t116 481zM1245.5 197q-190.5 -217 -487.5 -217q-147 0 -272.5 56t-264.5 214.5t-139 492.5t139 496t264 219.5t274 57.5t272.5 -57.5t264 -219t140.5 -493.5
t-190.5 -549zM1020 1602l-258 196l-258 -196h-82l278 354h123l279 -354h-82z" />
    <glyph glyph-name="Otilde" unicode="&#xd5;" horiz-adv-x="1517" 
d="M1180 744q0 318 -116 484.5t-308 166.5t-305 -168.5t-113 -478.5q0 -309 113 -478.5t305 -169.5t308 163t116 481zM1245.5 197q-190.5 -217 -487.5 -217q-147 0 -272.5 56t-264.5 214.5t-139 492.5t139 496t264 219.5t274 57.5t272.5 -57.5t264 -219t140.5 -493.5
t-190.5 -549zM755 1680q-63 35 -94.5 50t-71.5 15t-68.5 -33t-33.5 -76h-67q0 101 62.5 174.5t138.5 73.5t109.5 -15t65.5 -33t66 -35q33 -17 71 -17t66.5 32.5t32.5 75.5h68q0 -100 -62.5 -173.5t-140.5 -73.5q-79 0 -142 35z" />
    <glyph glyph-name="Odieresis" unicode="&#xd6;" horiz-adv-x="1517" 
d="M1180 744q0 318 -116 484.5t-308 166.5t-305 -168.5t-113 -478.5q0 -309 113 -478.5t305 -169.5t308 163t116 481zM1245.5 197q-190.5 -217 -487.5 -217q-147 0 -272.5 56t-264.5 214.5t-139 492.5t139 496t264 219.5t274 57.5t272.5 -57.5t264 -219t140.5 -493.5
t-190.5 -549zM655 1753q0 -47 -33.5 -81t-80.5 -34t-81 34t-34 81t34 81t81 34t80.5 -34t33.5 -81zM1094 1753q0 -47 -34 -81t-81 -34t-81 34t-34 81t34 81t81 34t81 -34t34 -81z" />
    <glyph glyph-name="multiply" unicode="&#xd7;" horiz-adv-x="1548" 
d="M1165 102l-391 394l-391 -394l-107 109l394 389l-394 391l109 109l389 -395l391 393l109 -107l-395 -391l395 -389z" />
    <glyph glyph-name="Ugrave" unicode="&#xd9;" horiz-adv-x="1490" 
d="M780 129q379 0 379 422v717q0 74 -57 116q-33 24 -43 32q-10 7 -10 24v55h366v-55q0 -17 -9 -25t-43 -33t-46 -50t-12 -62v-729q0 -232 -139 -396.5t-415 -164.5q-275 0 -419 151t-144 395v781q0 35 -10 50t-47 33t-46 24.5t-9 23.5v57h452v-57q0 -18 -8 -24.5t-44 -23.5
t-47 -33t-11 -50v-770q0 -186 94 -297t268 -111zM518 1863q0 32 23.5 60.5t55.5 28.5q66 0 120 -49l282 -263l-45 -38l-338 149q-98 46 -98 112z" />
    <glyph glyph-name="Uacute" unicode="&#xda;" horiz-adv-x="1490" 
d="M780 129q379 0 379 422v717q0 74 -57 116q-33 24 -43 32q-10 7 -10 24v55h366v-55q0 -17 -9 -25t-43 -33t-46 -50t-12 -62v-729q0 -232 -139 -396.5t-415 -164.5q-275 0 -419 151t-144 395v781q0 35 -10 50t-47 33t-46 24.5t-9 23.5v57h452v-57q0 -18 -8 -24.5t-44 -23.5
t-47 -33t-11 -50v-770q0 -186 94 -297t268 -111zM1047 1863q0 -66 -99 -112l-338 -149l-45 38l283 263q52 49 102 49q49 0 73 -28.5t24 -60.5z" />
    <glyph glyph-name="Ucircumflex" unicode="&#xdb;" horiz-adv-x="1490" 
d="M780 129q379 0 379 422v717q0 74 -57 116q-33 24 -43 32q-10 7 -10 24v55h366v-55q0 -17 -9 -25t-43 -33t-46 -50t-12 -62v-729q0 -232 -139 -396.5t-415 -164.5q-275 0 -419 151t-144 395v781q0 35 -10 50t-47 33t-46 24.5t-9 23.5v57h452v-57q0 -18 -8 -24.5t-44 -23.5
t-47 -33t-11 -50v-770q0 -186 94 -297t268 -111zM1036 1604l-258 196l-258 -196h-82l279 354h123l278 -354h-82z" />
    <glyph glyph-name="Udieresis" unicode="&#xdc;" horiz-adv-x="1490" 
d="M780 129q379 0 379 422v717q0 74 -57 116q-33 24 -43 32q-10 7 -10 24v55h366v-55q0 -17 -9 -25t-43 -33t-46 -50t-12 -62v-729q0 -232 -139 -396.5t-415 -164.5q-275 0 -419 151t-144 395v781q0 35 -10 50t-47 33t-46 24.5t-9 23.5v57h452v-57q0 -18 -8 -24.5t-44 -23.5
t-47 -33t-11 -50v-770q0 -186 94 -297t268 -111zM688 1753q0 -47 -33.5 -81t-81 -34t-81 34t-33.5 81t33.5 81t81 34t81 -34t33.5 -81zM1126 1753q0 -47 -33.5 -81t-80.5 -34t-81 34t-34 81t34 81t81 34t80.5 -34t33.5 -81z" />
    <glyph glyph-name="germandbls" unicode="&#xdf;" horiz-adv-x="2060" 
d="M-4 0v94h2068v-94h-2068z" />
    <glyph glyph-name="agrave" unicode="&#xe0;" horiz-adv-x="966" 
d="M270 264q0 -86 44 -125t92 -39q80 0 138 45t58 109v209q-158 -2 -245 -57.5t-87 -141.5zM877 123q29 0 57 31l43 -56q-29 -47 -78 -78.5t-102 -31.5t-99.5 30.5t-68.5 87.5q-111 -124 -271 -124q-196 0 -247.5 97t-51.5 163q0 137 136.5 225t408.5 88q0 238 -170 238
q-51 0 -76 -9q-4 -70 -28.5 -116.5t-89.5 -46.5q-109 0 -109 102q0 67 81.5 119.5t202.5 52.5q217 0 305.5 -94.5t88.5 -259.5v-344q0 -74 68 -74zM213 1280q0 37 23.5 64.5t57.5 27.5t60.5 -10t61.5 -49l254 -291l-49 -35l-320 184q-88 51 -88 109z" />
    <glyph glyph-name="aacute" unicode="&#xe1;" horiz-adv-x="966" 
d="M270 264q0 -86 44 -125t92 -39q80 0 138 45t58 109v209q-158 -2 -245 -57.5t-87 -141.5zM877 123q29 0 57 31l43 -56q-29 -47 -78 -78.5t-102 -31.5t-99.5 30.5t-68.5 87.5q-111 -124 -271 -124q-196 0 -247.5 97t-51.5 163q0 137 136.5 225t408.5 88q0 238 -170 238
q-51 0 -76 -9q-4 -70 -28.5 -116.5t-89.5 -46.5q-109 0 -109 102q0 67 81.5 119.5t202.5 52.5q217 0 305.5 -94.5t88.5 -259.5v-344q0 -74 68 -74zM707 1280q0 -57 -89 -109l-319 -184l-49 35l254 291q53 59 104 59t75 -27.5t24 -64.5z" />
    <glyph glyph-name="acircumflex" unicode="&#xe2;" horiz-adv-x="966" 
d="M270 264q0 -86 44 -125t92 -39q80 0 138 45t58 109v209q-158 -2 -245 -57.5t-87 -141.5zM877 123q29 0 57 31l43 -56q-29 -47 -78 -78.5t-102 -31.5t-99.5 30.5t-68.5 87.5q-111 -124 -271 -124q-196 0 -247.5 97t-51.5 163q0 137 136.5 225t408.5 88q0 238 -170 238
q-51 0 -76 -9q-4 -70 -28.5 -116.5t-89.5 -46.5q-109 0 -109 102q0 67 81.5 119.5t202.5 52.5q217 0 305.5 -94.5t88.5 -259.5v-344q0 -74 68 -74zM705 987l-248 207l-248 -207h-82l268 365h123l268 -365h-81z" />
    <glyph glyph-name="atilde" unicode="&#xe3;" horiz-adv-x="966" 
d="M270 264q0 -86 44 -125t92 -39q80 0 138 45t58 109v209q-158 -2 -245 -57.5t-87 -141.5zM877 123q29 0 57 31l43 -56q-29 -47 -78 -78.5t-102 -31.5t-99.5 30.5t-68.5 87.5q-111 -124 -271 -124q-196 0 -247.5 97t-51.5 163q0 137 136.5 225t408.5 88q0 238 -170 238
q-51 0 -76 -9q-4 -70 -28.5 -116.5t-89.5 -46.5q-109 0 -109 102q0 67 81.5 119.5t202.5 52.5q217 0 305.5 -94.5t88.5 -259.5v-344q0 -74 68 -74zM460 1080q-63 36 -92.5 50.5t-67.5 14.5t-62.5 -33t-28.5 -76h-64q0 100 56.5 172t140.5 72q47 0 74.5 -10t69.5 -33t74 -40
t68 -17t60.5 32.5t28.5 75.5h63q0 -101 -56.5 -172.5t-128.5 -71.5t-135 36z" />
    <glyph glyph-name="adieresis" unicode="&#xe4;" horiz-adv-x="966" 
d="M270 264q0 -86 44 -125t92 -39q80 0 138 45t58 109v209q-158 -2 -245 -57.5t-87 -141.5zM877 123q29 0 57 31l43 -56q-29 -47 -78 -78.5t-102 -31.5t-99.5 30.5t-68.5 87.5q-111 -124 -271 -124q-196 0 -247.5 97t-51.5 163q0 137 136.5 225t408.5 88q0 238 -170 238
q-51 0 -76 -9q-4 -70 -28.5 -116.5t-89.5 -46.5q-109 0 -109 102q0 67 81.5 119.5t202.5 52.5q217 0 305.5 -94.5t88.5 -259.5v-344q0 -74 68 -74zM377 1155q0 -47 -34 -81t-81 -34t-81 34t-34 81t34 81t81 34t81 -34t34 -81zM774 1155q0 -47 -33.5 -81t-81 -34t-81 34
t-33.5 81t33.5 81t81 34t81 -34t33.5 -81z" />
    <glyph glyph-name="aring" unicode="&#xe5;" horiz-adv-x="966" 
d="M270 264q0 -86 44 -125t92 -39q80 0 138 45t58 109v209q-158 -2 -245 -57.5t-87 -141.5zM573 1222.5q0 71.5 -28.5 112.5t-81.5 41t-82 -41t-29 -112.5t29 -112.5t82 -41t81.5 41t28.5 112.5zM877 123q29 0 57 31l43 -56q-29 -47 -78 -78.5t-102 -31.5t-99.5 30.5
t-68.5 87.5q-111 -124 -271 -124q-196 0 -247.5 97t-51.5 163q0 137 136.5 225t408.5 88q0 238 -170 238q-51 0 -76 -9q-4 -70 -28.5 -116.5t-89.5 -46.5q-109 0 -109 102q0 67 81.5 119.5t202.5 52.5q217 0 305.5 -94.5t88.5 -259.5v-344q0 -74 68 -74zM698 1222.5
q0 -98.5 -66.5 -161t-169 -62.5t-169 62.5t-66.5 161t66.5 161t169 62.5t169 -62.5t66.5 -161z" />
    <glyph glyph-name="ccedilla" unicode="&#xe7;" horiz-adv-x="845" 
d="M686 -242q0 -74 -61.5 -125t-190.5 -51q-72 0 -129 30t-98 60l39 64q101 -72 170 -72t91.5 25.5t22.5 56.5t-23.5 55.5t-80.5 24.5h-16q-15 0 -25 -2l66 160q-172 13 -282 132t-110 309t124.5 325t310.5 135q143 0 222 -58.5t79 -130.5t-35 -99.5t-76 -27.5t-89 30
t-7 157q-30 24 -95 24q-112 0 -166.5 -89t-54.5 -230q0 -142 62 -247t190 -105t256 143l64 -66q-52 -81 -128.5 -138t-195.5 -64l-28 -76q88 0 141 -38t53 -112z" />
    <glyph glyph-name="egrave" unicode="&#xe8;" horiz-adv-x="929" 
d="M466 786q-64 0 -120.5 -60t-73.5 -159h396q-9 103 -38.5 144t-64.5 58t-99 17zM511 -18q-119 0 -201.5 37.5t-137.5 99t-84 141.5t-29 166t29 171t83 150.5t135 106.5t229.5 41t246 -129t97.5 -307h-615q0 -154 68 -254.5t207 -100.5t272 158l66 -69
q-32 -70 -139.5 -140.5t-226.5 -70.5zM244 1280q0 37 23.5 64.5t57.5 27.5t60.5 -10t60.5 -49l254 -291l-49 -35l-319 184q-88 51 -88 109z" />
    <glyph glyph-name="eacute" unicode="&#xe9;" horiz-adv-x="929" 
d="M466 786q-64 0 -120.5 -60t-73.5 -159h396q-9 103 -38.5 144t-64.5 58t-99 17zM511 -18q-119 0 -201.5 37.5t-137.5 99t-84 141.5t-29 166t29 171t83 150.5t135 106.5t229.5 41t246 -129t97.5 -307h-615q0 -154 68 -254.5t207 -100.5t272 158l66 -69
q-32 -70 -139.5 -140.5t-226.5 -70.5zM727 1280q0 -57 -88 -109l-320 -184l-49 35l254 291q35 39 61.5 49t60.5 10t57.5 -27.5t23.5 -64.5z" />
    <glyph glyph-name="ecircumflex" unicode="&#xea;" horiz-adv-x="929" 
d="M464 784q-64 0 -120.5 -60t-73.5 -159h396q-9 103 -38.5 144t-64.5 58t-99 17zM508 -18q-120 0 -202.5 36.5t-137.5 98t-83 141.5t-28 166t29 171t83 150.5t135 106.5t230 41t244.5 -124.5t95.5 -295.5q0 -16 -122 -16h-490q0 -151 66.5 -252t205.5 -101t275 152l61 -63
q-31 -68 -136.5 -139.5t-225.5 -71.5zM737 987l-248 207l-247 -207h-82l268 365h123l268 -365h-82z" />
    <glyph glyph-name="edieresis" unicode="&#xeb;" horiz-adv-x="929" 
d="M464 784q-64 0 -120.5 -60t-73.5 -159h396q-9 103 -38.5 144t-64.5 58t-99 17zM508 -18q-120 0 -202.5 36.5t-137.5 98t-83 141.5t-28 166t29 171t83 150.5t135 106.5t230 41t244.5 -124.5t95.5 -295.5q0 -16 -122 -16h-490q0 -151 66.5 -252t205.5 -101t275 152l61 -63
q-31 -68 -136.5 -139.5t-225.5 -71.5zM395 1155q0 -47 -33.5 -81t-81 -34t-81 34t-33.5 81t33.5 81t81 34t81 -34t33.5 -81zM793 1155q0 -47 -34 -81t-81 -34t-81 34t-34 81t34 81t81 34t81 -34t34 -81z" />
    <glyph glyph-name="igrave" unicode="&#xec;" horiz-adv-x="552" 
d="M92 0v51q0 14 9 16.5t39 18.5t36 27.5t6 52.5v520q0 41 -7 56.5t-38 29.5t-40 20.5t-9 16.5v51l299 19v-713q0 -41 6 -51.5t36 -26.5t38 -20.5t8 -16.5v-51h-383zM-8 1280q0 37 23.5 64.5t57.5 27.5t60.5 -10t61.5 -49l254 -291l-50 -35l-319 184q-88 51 -88 109z" />
    <glyph glyph-name="iacute" unicode="&#xed;" horiz-adv-x="552" 
d="M92 0v51q0 14 9 16.5t39 18.5t36 27.5t6 52.5v520q0 41 -7 56.5t-38 29.5t-40 20.5t-9 16.5v51l299 19v-713q0 -41 6 -51.5t36 -26.5t38 -20.5t8 -16.5v-51h-383zM518 1280q0 -57 -88 -109l-319 -184l-50 35l254 291q35 39 61.5 49t60.5 10t57.5 -27.5t23.5 -64.5z" />
    <glyph glyph-name="icircumflex" unicode="&#xee;" horiz-adv-x="552" 
d="M92 0v51q0 14 9 16.5t39 18.5t36 27.5t6 52.5v520q0 41 -7 56.5t-38 29.5t-40 20.5t-9 16.5v51l299 19v-713q0 -41 6 -51.5t36 -26.5t38 -20.5t8 -16.5v-51h-383zM477 987l-225 205l-223 -205h-82l243 365h123l246 -365h-82z" />
    <glyph glyph-name="idieresis" unicode="&#xef;" horiz-adv-x="552" 
d="M92 0v51q0 14 9 16.5t39 18.5t36 27.5t6 52.5v520q0 41 -7 56.5t-38 29.5t-40 20.5t-9 16.5v51l299 19v-713q0 -41 6 -51.5t36 -26.5t38 -20.5t8 -16.5v-51h-383zM207 1155q0 -47 -34 -81t-81 -34t-81 34t-34 81t34 81t81 34t81 -34t34 -81zM580 1155q0 -47 -34 -81
t-81 -34t-81 34t-34 81t34 81t81 34t81 -34t34 -81z" />
    <glyph glyph-name="ntilde" unicode="&#xf1;" horiz-adv-x="1122" 
d="M652 885q158 0 235.5 -80t77.5 -215v-424q0 -39 6 -51t36 -28q30 -15 39 -19t9 -17v-51h-389v51q0 14 10 19q10 2 40 18t36 26.5t6 51.5v418q0 88 -49.5 128t-113.5 40t-121.5 -28t-88.5 -73v-485q0 -39 5.5 -50.5t36.5 -27.5q32 -16 40 -20.5t8 -16.5v-51h-385v51
q0 13 8 17t39 20t37 26.5t6 51.5v520q0 41 -7 56.5t-38 28.5t-39 19.5t-8 18.5v51l285 19v-115q121 121 279 121zM687 1044q-40 0 -68.5 9.5t-74.5 35.5t-76 41t-68 15t-62.5 -33t-28.5 -76h-63q0 102 56.5 173t139.5 71q47 0 75 -10t70 -33t73.5 -40t67.5 -17t60.5 32.5
t28.5 75.5h64q0 -99 -56 -171.5t-138 -72.5z" />
    <glyph glyph-name="ograve" unicode="&#xf2;" horiz-adv-x="1003" 
d="M727 436q0 164 -57.5 255t-168 91t-166.5 -90t-56 -254t56 -255t166.5 -91t168 90t57.5 254zM183 110q-124 128 -124 327t124 328.5t318 129.5t318.5 -130.5t124.5 -327.5t-123 -326t-318.5 -129t-319.5 128zM258 1280q0 37 23.5 64.5t57.5 27.5t60.5 -10t61.5 -49
l254 -291l-49 -35l-320 184q-88 51 -88 109z" />
    <glyph glyph-name="oacute" unicode="&#xf3;" horiz-adv-x="1003" 
d="M727 436q0 164 -57.5 255t-168 91t-166.5 -90t-56 -254t56 -255t166.5 -91t168 90t57.5 254zM183 110q-124 128 -124 327t124 328.5t318 129.5t318.5 -130.5t124.5 -327.5t-123 -326t-318.5 -129t-319.5 128zM756 1280q0 -57 -88 -109l-320 -184l-49 35l254 291
q35 39 61.5 49t60.5 10t57.5 -27.5t23.5 -64.5z" />
    <glyph glyph-name="ocircumflex" unicode="&#xf4;" horiz-adv-x="1003" 
d="M727 436q0 164 -57.5 255t-168 91t-166.5 -90t-56 -254t56 -255t166.5 -91t168 90t57.5 254zM183 110q-124 128 -124 327t124 328.5t318 129.5t318.5 -130.5t124.5 -327.5t-123 -326t-318.5 -129t-319.5 128zM754 987l-248 207l-248 -207h-82l268 365h123l269 -365h-82z
" />
    <glyph glyph-name="otilde" unicode="&#xf5;" horiz-adv-x="1003" 
d="M727 436q0 164 -57.5 255t-168 91t-166.5 -90t-56 -254t56 -255t166.5 -91t168 90t57.5 254zM183 110q-124 128 -124 327t124 328.5t318 129.5t318.5 -130.5t124.5 -327.5t-123 -326t-318.5 -129t-319.5 128zM499 1080q-63 36 -92.5 50.5t-67.5 14.5t-62.5 -33t-28.5 -76
h-64q0 100 56.5 172t140.5 72q47 0 74.5 -10t69.5 -33t73.5 -40t67.5 -17t61 32.5t29 75.5h63q0 -99 -56 -171.5t-129 -72.5q-72 0 -135 36z" />
    <glyph glyph-name="odieresis" unicode="&#xf6;" horiz-adv-x="1003" 
d="M727 436q0 164 -57.5 255t-168 91t-166.5 -90t-56 -254t56 -255t166.5 -91t168 90t57.5 254zM183 110q-124 128 -124 327t124 328.5t318 129.5t318.5 -130.5t124.5 -327.5t-123 -326t-318.5 -129t-319.5 128zM414 1155q0 -47 -34 -81t-81 -34t-81 34t-34 81t34 81t81 34
t81 -34t34 -81zM811 1155q0 -47 -34 -81t-81 -34t-80.5 34t-33.5 81t33.5 81t80.5 34t81 -34t34 -81z" />
    <glyph glyph-name="divide" unicode="&#xf7;" horiz-adv-x="1548" 
d="M915 217q0 -59 -40.5 -100t-100 -41t-100.5 41t-41 100t41 100t100.5 41t100 -41t40.5 -100zM229 526v148h1090v-148h-1090zM915 983q0 -59 -40.5 -100t-100 -41t-100.5 41t-41 100t41 100t100.5 41t100 -41t40.5 -100z" />
    <glyph glyph-name="ugrave" unicode="&#xf9;" horiz-adv-x="1107" 
d="M158 297v391q0 41 -8.5 55.5t-38.5 27.5t-37.5 19.5t-7.5 18.5v51l301 19v-596q0 -88 49.5 -130t113.5 -42t118 29.5t85 74.5v479q0 35 -8 49.5t-39 27.5t-40 19.5t-9 18.5v51l301 19v-697q0 -40 6.5 -50.5t38.5 -26.5q31 -15 39 -20t8 -17v-58l-278 -12v111
q-122 -127 -297 -127q-137 0 -217 89.5t-80 225.5zM289 1280q0 37 23.5 64.5t57.5 27.5t60.5 -10t61.5 -49l253 -291l-49 -35l-319 184q-88 51 -88 109z" />
    <glyph glyph-name="uacute" unicode="&#xfa;" horiz-adv-x="1107" 
d="M158 297v391q0 41 -8.5 55.5t-38.5 27.5t-37.5 19.5t-7.5 18.5v51l301 19v-596q0 -88 49.5 -130t113.5 -42t118 29.5t85 74.5v479q0 35 -8 49.5t-39 27.5t-40 19.5t-9 18.5v51l301 19v-697q0 -40 6.5 -50.5t38.5 -26.5q31 -15 39 -20t8 -17v-58l-278 -12v111
q-122 -127 -297 -127q-137 0 -217 89.5t-80 225.5zM807 1280q0 -57 -88 -109l-320 -184l-49 35l254 291q35 39 61.5 49t60.5 10t57.5 -27.5t23.5 -64.5z" />
    <glyph glyph-name="ucircumflex" unicode="&#xfb;" horiz-adv-x="1107" 
d="M158 297v391q0 41 -8.5 55.5t-38.5 27.5t-37.5 19.5t-7.5 18.5v51l301 19v-596q0 -88 49.5 -130t113.5 -42t118 29.5t85 74.5v479q0 35 -8 49.5t-39 27.5t-40 19.5t-9 18.5v51l301 19v-697q0 -40 6.5 -50.5t38.5 -26.5q31 -15 39 -20t8 -17v-58l-278 -12v111
q-122 -127 -297 -127q-137 0 -217 89.5t-80 225.5zM784 991l-247 207l-248 -207h-82l268 365h123l268 -365h-82z" />
    <glyph glyph-name="udieresis" unicode="&#xfc;" horiz-adv-x="1107" 
d="M158 297v391q0 41 -8.5 55.5t-38.5 27.5t-37.5 19.5t-7.5 18.5v51l301 19v-596q0 -88 49.5 -130t113.5 -42t118 29.5t85 74.5v479q0 35 -8 49.5t-39 27.5t-40 19.5t-9 18.5v51l301 19v-697q0 -40 6.5 -50.5t38.5 -26.5q31 -15 39 -20t8 -17v-58l-278 -12v111
q-122 -127 -297 -127q-137 0 -217 89.5t-80 225.5zM444 1155q0 -47 -33.5 -81t-80.5 -34t-81 34t-34 81t34 81t81 34t80.5 -34t33.5 -81zM842 1155q0 -47 -34 -81t-81 -34t-81 34t-34 81t34 81t81 34t81 -34t34 -81z" />
    <glyph glyph-name="ydieresis" unicode="&#xff;" horiz-adv-x="950" 
d="M29 -277q0 55 32.5 85t79.5 30t74 -30.5t27 -69.5q68 5 118 107t64 143l-313 725q-17 35 -52 53t-44 23.5t-9 15.5v55h414v-53q0 -12 -9 -19.5t-43 -20.5t-34 -38t22 -76l170 -428l166 414q19 48 19 71t-13.5 34.5t-49.5 27.5t-36 35v53h349v-51q0 -12 -9.5 -18.5
t-41.5 -22.5t-51 -46t-40 -77l-297 -700q-79 -188 -165 -268t-169 -80q-82 0 -120.5 35.5t-38.5 90.5zM420 1155q0 -47 -34 -81t-81 -34t-81 34t-34 81t34 81t81 34t81 -34t34 -81zM817 1155q0 -47 -33.5 -81t-81 -34t-81 34t-33.5 81t33.5 81t81 34t81 -34t33.5 -81z" />
    <glyph glyph-name="dotlessi" unicode="&#x131;" horiz-adv-x="552" 
d="M92 0v51q0 14 9 16.5t39 18.5t36 27.5t6 52.5v520q0 41 -7 56.5t-38 29.5t-40 20.5t-9 16.5v51l299 19v-713q0 -41 6 -51.5t36 -26.5t38 -20.5t8 -16.5v-51h-383z" />
    <glyph glyph-name="Ydieresis" unicode="&#x178;" horiz-adv-x="1302" 
d="M774 186q0 -35 11.5 -48.5t46.5 -31.5t45 -25t10 -24v-57h-459v57q0 16 9 23.5t46 24.5t48.5 31t11.5 50v492l-391 622q-38 61 -86 84t-56 30t-8 24v57h487v-39q0 -18 -6 -25.5t-45 -28.5t-39 -47t41 -91l271 -441l260 437q43 71 43 93q0 23 -14 32.5t-40 20.5
t-38.5 19.5t-12.5 24.5v45h389v-47q0 -16 -9 -24.5t-32 -23.5q-49 -32 -70 -54t-54 -76l-359 -588v-496zM606 1753q0 -47 -33.5 -81t-81 -34t-81 34t-33.5 81t33.5 81t81 34t81 -34t33.5 -81zM1044 1753q0 -47 -33.5 -81t-80.5 -34t-81 34t-34 81t34 81t81 34t80.5 -34
t33.5 -81z" />
    <glyph glyph-name="florin" unicode="&#x192;" 
d="M305 1753q0 -47 -33.5 -81t-81 -34t-81 34t-33.5 81t33.5 81t81 34t81 -34t33.5 -81zM743 1753q0 -47 -33.5 -81t-80.5 -34t-81 34t-34 81t34 81t81 34t80.5 -34t33.5 -81z" />
    <glyph glyph-name="circumflex" unicode="&#x2c6;" 
d="M657 987l-247 207l-248 -207h-82l268 365h123l268 -365h-82z" />
    <glyph glyph-name="ring" unicode="&#x2da;" 
d="M526 1222.5q0 75.5 -30.5 116.5t-86 41t-86 -41t-30.5 -116.5t30.5 -116.5t86 -41t86 41t30.5 116.5zM643 1222.5q0 -98.5 -65.5 -161t-168 -62.5t-168 62.5t-65.5 161t65.5 161t168 62.5t168 -62.5t65.5 -161z" />
    <glyph glyph-name="tilde" unicode="&#x2dc;" 
d="M533 1047q-40 0 -68.5 9t-74.5 35t-75.5 41t-67.5 15t-62.5 -33t-28.5 -76h-64q0 98 55.5 169t141.5 71q47 0 74.5 -11t69.5 -33t73.5 -39t67.5 -17t60.5 32.5t29.5 75.5h63q0 -97 -55 -168t-139 -71z" />
    <glyph glyph-name="endash" unicode="&#x2013;" horiz-adv-x="1138" 
d="M109 381v151h909v-151h-909z" />
    <glyph glyph-name="emdash" unicode="&#x2014;" horiz-adv-x="2265" 
d="M109 381v151h2048v-151h-2048z" />
    <glyph glyph-name="quoteleft" unicode="&#x2018;" horiz-adv-x="522" 
d="M389 1072q0 -56 -41.5 -94t-105.5 -38t-98.5 50t-34.5 114q0 124 67.5 233t196.5 181l51 -60q-64 -53 -113 -106.5t-69 -134.5q147 -17 147 -145z" />
    <glyph glyph-name="quoteright" unicode="&#x2019;" horiz-adv-x="522" 
d="M270 1239q-145 18 -145 144q0 56 41 94.5t94 38.5q146 0 146 -181q0 -100 -62.5 -208.5t-204.5 -186.5l-49 57q61 53 111.5 106.5t68.5 135.5z" />
    <glyph glyph-name="quotesinglbase" unicode="&#x201a;" horiz-adv-x="1742" 
d="M1634 256q0 -127 -95 -200.5t-224 -73.5t-203 48t-74 117q0 41 26 68t66.5 27t62 -24.5t21.5 -55.5t-26 -64q34 -30 112 -30t122 52t44 130t-55 118t-186 40v86q115 4 164 39t49 101t-38 97t-94 31t-89 -27q20 -25 20 -57t-24.5 -52t-58.5 -20t-59.5 21.5t-25.5 58.5
q0 68 77 115t157 47q140 0 219.5 -56.5t79.5 -132.5t-50.5 -127t-134.5 -71q94 -18 155.5 -75.5t61.5 -129.5zM551 -20h-121l797 1521h121zM532 784q56 0 78 54q5 21 33 32h55l-8 -223h-565v105q37 52 103 120t144 147t120.5 141.5t42.5 124.5t-40.5 96t-90.5 34
q-92 0 -125 -47q41 -31 41 -71t-24 -63.5t-66 -23.5t-67.5 27t-25.5 65q0 77 82.5 138t203.5 61q122 0 200.5 -60.5t78.5 -169.5t-159 -245q-216 -177 -273 -242h262z" />
    <glyph glyph-name="quotedblleft" unicode="&#x201c;" horiz-adv-x="901" 
d="M389 1072q0 -56 -41.5 -94t-105.5 -38t-98.5 50t-34.5 114q0 124 67.5 233t196.5 181l51 -60q-64 -53 -113 -106.5t-69 -134.5q147 -17 147 -145zM768 1072q0 -56 -41 -94t-105 -38t-99.5 50t-35.5 114q0 122 68 232t197 182l51 -60q-64 -53 -113 -106.5t-69 -134.5
q147 -17 147 -145z" />
    <glyph glyph-name="quotedblright" unicode="&#x201d;" horiz-adv-x="901" 
d="M270 1239q-145 18 -145 144q0 56 41.5 94.5t105.5 38.5t99 -49t35 -113q0 -121 -67.5 -230.5t-199.5 -183.5l-49 57q61 53 111.5 106.5t68.5 135.5zM649 1239q-145 18 -145 144q0 56 41 94.5t105 38.5t99 -49t35 -113q0 -123 -67 -231.5t-199 -182.5l-49 57
q61 53 111.5 106.5t68.5 135.5z" />
    <glyph glyph-name="dagger" unicode="&#x2020;" horiz-adv-x="1024" 
d="M930 1032q0 -39 -26.5 -68.5t-79.5 -29.5t-111 31q-75 30 -158 30q0 -101 28.5 -192.5t49.5 -130.5q-63 -149 -67.5 -445.5t-4.5 -443.5h-92q0 521 -24.5 675t-49.5 214q56 110 68 202.5t12 120.5q-92 -3 -138 -22q-47 -20 -71 -29.5t-69 -9.5t-71 30.5t-26 69.5t26 67.5
t71 28.5t69.5 -9t74.5 -29.5t134 -20.5q-3 93 -23 153t-28 91t-8 79t28.5 77.5t71.5 29.5t70.5 -31.5t27.5 -77.5t-9 -77t-19 -65t-20.5 -74.5t-10.5 -104.5q91 3 137.5 22t70 28t69.5 9t72 -29.5t26 -68.5z" />
    <glyph glyph-name="daggerdbl" unicode="&#x2021;" horiz-adv-x="1622" 
d="M1372 190q0 52 -37 89t-186 100q-39 -20 -77 -60t-38 -106t48 -105.5t120 -39.5t121 35t49 87zM1335 645q0 49 -35.5 82t-93.5 33t-92.5 -32t-34.5 -82t45 -82t117 -62q94 50 94 143zM1069 422q-127 83 -127 189q0 107 78.5 172t195.5 65t185.5 -59t68.5 -127t-43 -118
t-104 -79q94 -45 144.5 -99t50.5 -126q0 -125 -93.5 -192.5t-230.5 -67.5q-138 0 -218.5 65.5t-80.5 157.5q0 129 174 219zM440 -20h-118l794 1521h121zM367 1501h395v-82q-137 -201 -199.5 -346.5t-62.5 -306.5q0 -119 -96 -119t-95 101q0 83 99.5 264.5t218.5 347.5h-291
q-52 0 -71 -49q-10 -27 -36 -27h-49q0 41 10 129t9 96q70 -8 168 -8z" />
    <glyph glyph-name="bullet" unicode="&#x2022;" horiz-adv-x="1548" 
d="M1516 741.5q0 -153.5 -58.5 -289t-159 -235.5t-235.5 -158.5t-288.5 -58.5t-289 58.5t-235.5 158.5t-158.5 235.5t-58.5 289t58.5 288.5t158.5 235.5t235.5 158t289 57.5t288.5 -57.5t235.5 -158t159 -235.5t58.5 -288.5z" />
    <glyph glyph-name="ellipsis" unicode="&#x2026;" horiz-adv-x="1947" 
d="M465 130q0 -58 -41 -100t-100.5 -42t-99.5 42t-40 100t40 100t99.5 42t100.5 -42t41 -100zM1114 130q0 -58 -41 -100t-100.5 -42t-99 42t-39.5 100t39.5 100t99 42t100.5 -42t41 -100zM1763 130q0 -58 -41 -100t-100 -42t-99 42t-40 100t40 100t99 42t100 -42t41 -100z
" />
    <glyph glyph-name="perthousand" unicode="&#x2030;" horiz-adv-x="278" 
d="M-190 -20h-113l797 1521h112z" />
    <glyph glyph-name="guilsinglleft" unicode="&#x2039;" horiz-adv-x="1722" 
d="M1473 190q0 52 -37.5 89t-186.5 100q-39 -20 -75.5 -60t-36.5 -106t47 -105.5t119 -39.5t121 35t49 87zM1436 645q0 49 -36 82t-93 33t-92 -32t-35 -82t45 -82t116 -62q95 51 95 143zM1169 422q-127 83 -127 189q0 107 78.5 172t196.5 65q117 0 185.5 -59t68.5 -127
t-43 -118t-105 -79q94 -45 144.5 -99t50.5 -126q0 -125 -93 -192.5t-229 -67.5t-217.5 64.5t-81.5 158.5q0 127 172 219zM541 -20h-119l795 1521h120zM729 912q0 -127 -96 -201t-224 -74q-129 0 -202.5 48t-73.5 118q0 41 25.5 67.5t66.5 26.5t62.5 -24.5t21.5 -55.5
t-26 -63q35 -31 113 -31t121.5 52t43.5 130t-54 118t-188 40v86q115 4 164 39.5t49 101.5t-37.5 96.5t-93.5 30.5t-90 -26q21 -25 21 -57t-23.5 -52t-58.5 -20t-60.5 21.5t-25.5 58.5q0 67 75.5 114t157.5 47q145 0 222 -57t77 -132t-50 -126t-134 -72q94 -18 155.5 -75
t61.5 -129z" />
    <glyph glyph-name="guilsinglright" unicode="&#x203a;" horiz-adv-x="1669" 
d="M965 0v104q37 53 104 121q65 69 143 147t119 141t41 125t-41 96t-89 34q-88 0 -124 -47q41 -31 41 -71t-23.5 -63.5t-66.5 -23.5t-67.5 26.5t-24.5 64.5q0 78 82.5 139t203.5 61t199 -60.5t78 -158.5q0 -120 -158 -256q-212 -174 -272 -242h260q57 0 80 53q6 22 33 33h55
l-8 -223h-565zM467 -20h-121l797 1521h121zM195 645v43q0 18 16 27.5t43 17.5t38 17.5t11 33.5v564h-139v71l207 76h86v-711q0 -23 10 -34t39 -17q55 -10 55 -43v-45h-366z" />
    <glyph glyph-name="fraction" unicode="&#x2044;" horiz-adv-x="1648" 
d="M1399 190q0 52 -38.5 88.5t-184.5 100.5q-41 -20 -78 -60t-37 -106t48 -105.5t119 -39.5t121 35t50 87zM1362 645q0 49 -36 82t-93 33t-92 -32t-35 -82t45 -82t117 -62q94 50 94 143zM922 203q0 129 174 219q-127 78 -127 187t78 174t195 65q118 0 185.5 -59t67.5 -127
t-42 -118t-103 -79q92 -45 142 -99t50 -126q0 -125 -91.5 -192.5t-229.5 -67.5t-218.5 64.5t-80.5 158.5zM467 -20h-121l797 1521h121zM195 645v43q0 18 16 27.5t43 17.5t38 17.5t11 33.5v564h-139v71l207 76h86v-711q0 -23 10 -34t39 -17q55 -10 55 -43v-45h-366z" />
    <glyph glyph-name="trademark" unicode="&#x2122;" horiz-adv-x="1024" 
d="M356 1112v-252h-82v254h-79v84h243v-86h-82zM754 860l-11 201l-69 -201h-45l-70 201l-10 -201h-72l19 338h96l59 -184l60 184h102l10 -338h-69zM924 1022q0 86 -33 160.5t-88 131t-130 89.5t-161 33t-161 -33t-130 -89.5t-88 -131t-33 -160.5t33 -161t88 -130t130 -88
t161 -33t161 33t130 88t88 130t33 161zM991 1022q0 -98 -38 -185t-102.5 -151.5t-152.5 -102.5t-186 -38t-186 38t-152.5 102.5t-102.5 151.5t-38 185t38 186t102.5 152.5t152.5 102.5t186 38t186 -38t152.5 -102.5t102.5 -152.5t38 -186z" />
    <glyph glyph-name="Delta" unicode="&#x2206;" 
d="M405 1684q-63 35 -94.5 50t-71.5 15t-69 -33t-33 -76h-67q0 102 61.5 171t138.5 69t110.5 -15t65.5 -33t66 -35q32 -17 70 -17t67 32.5t33 75.5h68q0 -100 -62 -169.5t-141 -69.5t-142 35z" />
    <glyph glyph-name="minus" unicode="&#x2212;" horiz-adv-x="1548" 
d="M240 526v148h1069v-148h-1069z" />
    <glyph glyph-name="radical" unicode="&#x221a;" 
d="M676 1863q0 -66 -98 -112l-338 -149l-45 38l282 263q52 49 102 49t73.5 -28.5t23.5 -60.5z" />
    <glyph glyph-name="infinity" unicode="&#x221e;" horiz-adv-x="471" 
d="M449 1419q0 -33 -6.5 -60.5t-36.5 -62.5l-287 -313l-56 33l168 373q27 57 54.5 81.5t66.5 24.5t68 -21.5t29 -54.5z" />
    <glyph glyph-name="approxequal" unicode="&#x2248;" 
d="M668 1602l-258 196l-258 -196h-82l278 354h123l279 -354h-82z" />
    <glyph glyph-name="filledbox" unicode="&#x25a0;" horiz-adv-x="1404" 
d="M1200 995v-995h-995v995h995z" />
    <glyph glyph-name="lozenge" unicode="&#x25ca;" horiz-adv-x="1134" 
d="M559 1407l-336 -641l336 -664l332 664zM621 -10h-123l-404 776l404 750h123l399 -750z" />
    <glyph glyph-name="fi" unicode="&#xfb01;" horiz-adv-x="1708" 
d="M1458 190q0 52 -26.5 78.5t-66.5 47.5q-40 20 -69 34t-59 29q-41 -20 -78 -60t-37 -106t47 -105.5t119 -39.5t121 35t49 87zM1423 645q0 49 -36.5 82t-92.5 33t-91.5 -32t-35.5 -82t45 -82t115 -62q96 49 96 143zM1155 422q-127 83 -127 189t79.5 171.5t195.5 65.5
t184.5 -59t68.5 -127t-41.5 -118t-103.5 -79q92 -45 142.5 -99t50.5 -126q0 -124 -92 -192t-229 -68q-138 0 -219 64.5t-81 158.5q0 130 172 219zM528 -20h-120l796 1521h119zM456 1194q115 0 193 -76.5t78 -199.5t-97 -203t-226 -80q-128 0 -200.5 49t-72.5 123
q0 35 25.5 62.5t67.5 27.5t62.5 -23.5t20.5 -55.5t-26 -66q35 -31 91 -31q96 0 142.5 55t46.5 128t-40 127t-125 54t-165 -63l-63 39l29 428h338q27 0 37 3t18 19t35 27h49l-10 -190h-381l-15 -205q73 51 188 51z" />
    <glyph glyph-name="fl" unicode="&#xfb02;" horiz-adv-x="1650" 
d="M1270 309v334l-252 -334h252zM1423 213v-92q0 -18 7.5 -24.5t33.5 -19.5t25 -32v-45h-289v45q0 20 35 35q15 10 25 15t10 26v92h-365v98l410 543h108v-545h127v-96h-127zM541 -20h-119l795 1521h120zM326 1335q0 -33 -25 -53t-59 -20t-60 21.5t-26 58.5q0 67 75.5 114
t157.5 47q143 0 221 -57t78 -132t-49 -126t-135 -72q96 -18 156.5 -75t60.5 -129q0 -127 -96 -201t-221 -74q-126 0 -202.5 49t-76.5 117q0 41 25.5 67.5t66.5 26.5t63.5 -24.5t22.5 -54.5t-29 -64q35 -31 113 -31t122 52t44 130t-54.5 118t-185.5 40v86q115 4 163 39.5
t48 101.5t-36.5 96.5t-92.5 30.5t-92 -26q23 -23 23 -56z" />
    </font>
</defs>
</svg>
